<?xml version="1.0" encoding="UTF-8"?>
<svg width="124px" height="42px" viewBox="0 0 124 42" version="1.1" xmlns="http://www.w3.org/2000/svg" xmlns:xlink="http://www.w3.org/1999/xlink">
    <!-- Generator: Sketch 49.2 (51160) - http://www.bohemiancoding.com/sketch -->
    <title>Page 1</title>
    <desc>Created with Sketch.</desc>
    <defs>
        <polygon id="path-1" points="0 0.3048745 28.3318558 0.3048745 28.3318558 40.3406965 0 40.3406965"></polygon>
        <polygon id="path-3" points="0.145353794 0.165397116 24.2238323 0.165397116 24.2238323 28.5179633 0.145353794 28.5179633"></polygon>
        <polygon id="path-5" points="0.201163806 0.182962817 9.47255045 0.182962817 9.47255045 9.4543177 0.201163806 9.4543177"></polygon>
    </defs>
    <g id="Symbols" stroke="none" stroke-width="1" fill="none" fill-rule="evenodd">
        <g id="Header" transform="translate(-182.000000, -29.000000)">
            <g id="Page-1" transform="translate(182.000000, 29.000000)">
                <g id="Group-3" transform="translate(0.000000, 1.405256)">
                    <mask id="mask-2" fill="white">
                        <use xlink:href="#path-1"></use>
                    </mask>
                    <g id="Clip-2"></g>
                    <path d="M14.2729421,40.3406965 C16.4138612,40.3406965 18.4121582,39.9839826 20.1248934,39.412859 C21.9090985,38.770901 23.4077419,37.9142157 24.6211411,36.8437561 C25.8342227,35.7732966 26.7617426,34.4887452 27.4040183,32.9901018 C28.0466117,31.5629283 28.3318558,30.0639673 28.3318558,28.4227019 C28.3318558,26.6384968 28.0466117,25.0687012 27.4754881,23.7841498 C26.9761521,22.4995983 26.2624066,21.500291 25.4060389,20.7865454 C24.5496713,20.0016476 23.5506816,19.3593719 22.3372824,18.7885661 C21.4809147,18.3603822 20.1963633,17.9321984 18.483628,17.4325448 L16.9849847,17.0043609 C15.7004332,16.647647 14.6299737,16.4335551 13.7021362,16.2194632 C11.775309,15.7912793 10.4907576,15.3630955 9.91963407,15.0060639 C9.20620614,14.5778801 8.70655248,14.1496963 8.42099072,13.7215125 C7.99280691,13.0792368 7.778715,12.436961 7.778715,11.7232155 C7.778715,10.5101339 8.34983851,9.43967432 9.49145026,8.65477654 C10.6333796,7.79840891 12.132023,7.3702251 13.9162281,7.3702251 C15.9142075,7.3702251 17.4843207,7.94103097 18.6977199,9.01149051 C19.9108015,10.08195 20.4816074,11.4379713 20.5530773,13.1507066 L28.3318558,13.1507066 C28.2607036,11.0097875 27.7610499,9.08296036 26.9046823,7.4413773 C25.9768448,5.72864204 24.8349154,4.37293839 23.4792118,3.30216121 C22.0517206,2.23170167 20.5530773,1.44680389 18.9118118,1.01862007 C17.2705464,0.590436258 15.6289634,0.3048745 14.0588502,0.3048745 C11.9179311,0.3048745 9.91963407,0.590436258 8.20689881,1.23271198 C6.42301135,1.8749877 4.92405035,2.73135533 3.71096875,3.80181487 C2.49788716,4.87227441 1.57004968,6.15682586 0.927773952,7.65546921 C0.285498229,9.08296036 -6.3528756e-05,10.5812861 -6.3528756e-05,12.2228691 C-6.3528756e-05,14.0070742 0.285498229,15.5771874 0.856304102,16.8614212 C1.35595777,18.1462903 2.06970334,19.14528 2.92607097,19.8590256 C3.7824386,20.6439234 4.78142829,21.2865167 5.99450989,21.8573226 C6.85119516,22.2851888 8.13574661,22.7136902 9.84848187,23.2130263 L11.3471252,23.6415277 C12.6316767,23.9267718 13.7021362,24.1408637 14.6299737,24.4261079 C16.5564832,24.9260792 17.8413523,25.3539453 18.4121582,25.6395071 C19.1259037,26.0676909 19.6255574,26.4958747 19.9108015,26.9243762 C20.3389853,27.5663343 20.5530773,28.2089276 20.5530773,28.9223556 C20.5530773,30.1354372 19.9822714,31.2058967 18.840342,31.9911121 C17.6984126,32.8474798 16.1997692,33.2756636 14.4158818,33.2756636 C12.4175848,33.2756636 10.8474716,32.7048577 9.63407232,31.6343982 C8.42099072,30.5639386 7.85018485,29.2079173 7.778715,27.4951821 L-6.3528756e-05,27.4951821 C0.0714063217,29.6361011 0.571059988,31.5629283 1.42742762,33.2041937 C2.35494746,34.916929 3.49687684,36.2729503 4.85289814,37.3434098 C6.28007164,38.414187 7.778715,39.1987671 9.42029805,39.6272686 C11.0615635,40.0554524 12.7031465,40.3406965 14.2729421,40.3406965" id="Fill-1" fill="#252424" mask="url(#mask-2)"></path>
                </g>
                <g id="Group-6" transform="translate(99.740147, 12.522788)">
                    <mask id="mask-4" fill="white">
                        <use xlink:href="#path-3"></use>
                    </mask>
                    <g id="Clip-5"></g>
                    <polygon id="Fill-4" fill="#252424" mask="url(#mask-4)" points="24.0102486 6.50556696 9.76265452 21.8931846 24.2240229 21.8931846 24.2240229 28.5179633 0.145353794 28.5179633 0.145353794 22.1777934 14.3217957 6.86196328 0.359128058 6.86196328 0.359128058 0.165397116 24.0102486 0.165397116"></polygon>
                </g>
                <polygon id="Fill-7" fill="#FF0000" points="81.1895278 28.945893 87.8933998 28.945893 87.8933998 19.3892622 97.4500305 19.3892622 97.4500305 12.6850726 87.8933998 12.6850726 87.8933998 3.12844182 81.1895278 3.12844182 81.1895278 12.6850726 71.6325794 12.6850726 71.6325794 19.3892622 81.1895278 19.3892622"></polygon>
                <g id="Group-11" transform="translate(60.352318, 0.134681)">
                    <mask id="mask-6" fill="white">
                        <use xlink:href="#path-5"></use>
                    </mask>
                    <g id="Clip-10"></g>
                    <path d="M4.83685713,9.4543177 C7.4043718,9.4543177 9.47255045,7.38613905 9.47255045,4.81862438 C9.47255045,2.2511097 7.4043718,0.182931053 4.83685713,0.182931053 C2.26934246,0.182931053 0.201163806,2.2511097 0.201163806,4.81862438 C0.201163806,7.38613905 2.26934246,9.4543177 4.83685713,9.4543177" id="Fill-9" fill="#252424" mask="url(#mask-6)"></path>
                </g>
                <polygon id="Fill-12" fill="#252424" points="61.4805889 41.0408469 68.969041 41.0408469 68.969041 12.6879631 61.4805889 12.6879631"></polygon>
                <path d="M37.8396965,23.3588883 C38.9126971,20.3539781 41.4170007,18.3505988 44.7795778,18.3505988 C48.1421548,18.3505988 50.5746709,20.3539781 51.6479892,23.3588883 L37.8396965,23.3588883 Z M44.7795778,11.9831116 C36.8769182,11.9831116 30.4703608,18.6456899 30.4703608,26.864405 C30.4703608,35.0834378 36.8769182,41.7460161 44.7795778,41.7460161 C50.9148674,41.7460161 56.1461428,37.7290929 58.1803335,32.0874217 L50.8608679,32.0874217 C49.57314,34.0904834 47.426821,35.4499988 44.7795778,35.4499988 C40.7731368,35.4499988 38.0544237,32.5165585 37.4102421,28.7248447 L58.9734901,28.7248447 C59.0465481,28.1149686 59.0887948,27.4949279 59.0887948,26.864405 C59.0887948,18.6456899 52.6822374,11.9831116 44.7795778,11.9831116 Z" id="Fill-14" fill="#252424"></path>
            </g>
        </g>
    </g>
</svg>