<?xml version="1.0" encoding="UTF-8"?>
<svg width="115px" height="140px" viewBox="0 0 115 140" version="1.1" xmlns="http://www.w3.org/2000/svg" xmlns:xlink="http://www.w3.org/1999/xlink">
    <!-- Generator: Sketch 53.2 (72643) - https://sketchapp.com -->
    <title>Group 82</title>
    <desc>Created with Sketch.</desc>
    <g id="Desktop" stroke="none" stroke-width="1" fill="none" fill-rule="evenodd">
        <g id="Kommode" transform="translate(-1163.000000, -4705.000000)">
            <g id="Group-82" transform="translate(1163.000000, 4705.000000)">
                <path d="M57.4900333,0.149170661 L114.900305,0.149170661 L114.900305,84.7494321 C114.900305,115.154341 89.2115765,139.798815 57.526663,139.798815 C25.8406136,139.798815 0.148761728,115.154341 0.148761728,84.7494321 L0.148761728,0.149170661 L57.4900333,0.149170661 Z" id="Fill-1" fill="#C0B9B4"></path>
                <g id="Group-81" transform="translate(7.098765, 5.300113)">
                    <path d="M31.4895556,23.5034318 C37.6345309,25.7965037 44.3417284,28.4064209 45.839,29.6251224 C46.2660617,29.9732822 41.6251728,33.8474492 41.4167531,41.4927303 C38.1879506,42.8181856 37.2838519,41.3760128 37.2838519,41.3760128 C37.2838519,41.3760128 36.3965062,41.5106649 36.1301605,42.0888436 C33.781037,40.7320738 34.3154321,38.8961929 32.6517654,40.0126954 C32.2613333,40.2740288 30.6808642,37.2493374 30.0030741,38.5981362 C28.3138519,38.2112604 28.485642,36.3819271 28.0230864,36.2794434 C27.5681975,36.183792 26.5987901,36.9188276 26.335,36.4229206 C25.9079383,35.58654 25.4155679,34.598142 25.2514444,34.4523875 C25.0785185,34.3111878 24.8610123,34.9149874 24.1522716,34.691516 C23.4279136,34.4600738 23.0363457,32.7633999 22.4119383,32.5219939 C21.1242222,32.9769075 20.469716,31.0573316 20.3921975,30.797137 C20.1815062,31.3243585 18.4434444,31.5054129 18.6984321,30.6126664 C19.5934444,27.5022873 14.9062716,26.8139387 15.4429383,23.8236932 C8.72580247,22.7718123 10.4794815,11.8951646 9.16166667,11.664861 C6.73133333,11.236707 5.05006173,11.3890092 5.05006173,11.3890092 C5.05006173,11.3890092 5.32293827,9.63312244 8.717,9.41505999 C6.97893827,8.28090748 4.62754321,7.98512825 4.62754321,7.98512825 C4.62754321,7.98512825 5.64124691,6.6118472 9.85734568,7.34460537 C8.98675309,5.35186754 6.76483951,4.37001714 6.76483951,4.37001714 C6.76483951,4.37001714 9.36355556,3.77390385 11.960284,5.93687843 C11.8305185,3.44367872 9.78635802,1.41421757 9.78635802,1.41421757 C9.78635802,1.41421757 12.3262963,1.10391983 14.6390741,5.03502222 C15.2856296,2.67191983 14.4184444,0.159931445 14.4184444,0.159931445 C14.4184444,0.159931445 17.1381235,0.512361365 17.7804198,5.43413914 C19.9997778,8.38111373 18.3051605,12.7557426 20.5722222,17.8164427 C21.8332469,20.6313272 26.3486296,21.5852793 31.4895556,23.5034318" id="Fill-5" fill="#EDE9E6"></path>
                    <path d="M39.9492963,92.0507666 C41.8460864,85.5743686 48.2926173,81.5487535 54.8288765,82.0870774 C55.1750123,80.7525124 55.4723086,79.2713389 55.3524815,79.0356264 C51.5182963,70.9180665 49.2376049,70.3842975 49.2376049,70.3842975 C49.2376049,70.3842975 40.7866667,68.4846489 35.6800988,70.8599924 C34.6584444,71.3405269 27.0284074,75.8685967 28.531358,76.2022379 C30.9991728,76.744832 27.5486049,78.341869 26.9985926,79.6721638 C26.4562469,81.0018893 27.8092716,80.6816279 27.870321,80.8416163 C28.0210988,81.2464267 24.4563827,84.7069583 25.3425926,84.8894362 C28.6500494,85.529959 23.8552593,88.8259474 24.8789012,89.0707695 C27.7272099,89.7426068 24.2366049,92.61158 25.253716,92.7581885 C25.6131975,92.8048755 26.3097284,92.985076 26.8730864,93.0650702 C26.5559136,93.629869 25.7105926,95.2536656 25.8948765,96.934967 C25.9735309,97.7135582 26.8875679,96.2255524 27.3523951,97.2509583 C25.0086667,99.1545923 29.3911605,104.599037 29.6995309,107.841506 C28.1122469,108.019429 28.3774568,106.013311 27.0008642,105.419475 C26.2577654,106.773968 24.7468642,106.758311 22.9434938,106.320193 C21.1489259,105.879798 19.0457037,105.003563 17.1259136,104.976803 C12.8922099,103.906987 11.1339877,105.354854 10.7480988,105.839943 C10.8744568,105.879798 12.3609383,106.217994 14.4871605,107.132091 C10.8957531,107.394279 10.2568642,109.558107 10.2568642,109.558107 C10.2568642,109.558107 12.1059506,109.451353 14.4050988,109.900573 C10.6793827,111.782287 11.1927654,113.863844 11.1927654,113.863844 C11.1927654,113.863844 13.2559506,112.649413 15.3821728,112.48487 C14.2318889,113.3389 13.2803704,115.211504 13.9845679,116.550624 C14.8298889,115.762923 16.4603333,115.015647 17.0469753,114.771394 C16.2561728,116.563719 16.3771358,117.871525 17.2488642,118.828039 C19.5659012,115.651899 20.4021358,115.847472 21.0765185,115.896722 C21.4448025,115.929744 22.4462963,116.247728 23.9205679,116.401169 C25.1472346,116.530128 26.7012963,116.483441 28.4793951,116.585924 C32.7431975,116.830177 37.6955802,116.970523 40.9556173,113.694462 C39.9473086,106.400187 38.1180988,98.2800651 39.9492963,92.0507666" id="Fill-7" fill="#EDE9E6"></path>
                    <path d="M47.1591148,21.0071007 C47.1591148,21.0071007 46.9617691,23.1888639 48.5632506,23.3300636 C49.0789049,23.3713418 50.9779667,23.1934187 53.4355593,23.5259213 C58.6045963,24.2142699 64.4698802,26.0601145 68.7515716,21.874511 C72.4429296,18.2559837 69.5457815,12.9012125 72.8643123,10.6175349 C75.5885346,8.72699608 78.587621,10.4307869 78.7071642,11.1612677 C74.6344605,9.67240784 73.7783494,10.9910309 73.3078432,11.3058835 C70.0242383,13.5186765 74.9272136,24.7767913 62.4555346,25.1104325 C58.111942,25.22715 53.5400531,25.4617237 51.5589296,27.3832924 C50.4342012,28.465349 49.3094728,28.4041435 47.6901025,29.8707985 C43.2704111,33.8374855 43.1128185,38.8460898 42.6548062,41.3014275 C42.4727938,42.2667666 42.9731148,41.959885 42.9731148,41.959885 C42.9731148,41.959885 45.7649173,41.251609 47.4774235,41.0480651 C47.7835222,41.0079256 47.8201519,41.1869874 47.8201519,41.1869874 C47.8201519,41.1869874 47.9132877,41.5240447 47.5251272,41.5516584 C41.8228309,41.8887158 26.7101272,48.5139997 19.9254111,48.5840302 C19.4972136,48.4906562 15.5451889,47.5953476 15.0550901,45.4713737 C15.6042506,44.8040912 18.1331148,48.7095727 20.5023988,47.5164921 C17.7128679,45.2202887 15.9980901,39.7735669 12.8212506,38.1355364 C10.7813494,32.2763178 8.1650284,32.1749728 8.1650284,32.1749728 C8.1650284,32.1749728 9.6623,37.0902031 9.18554691,38.0763236 C5.06939877,34.119885 2.78331235,35.2429351 2.78331235,35.2429351 L6.45252222,39.8734885 C6.45252222,39.8734885 2.21995432,37.9419561 0.236559259,39.6289511 C2.70891728,40.4829816 4.96604074,42.062084 4.90726296,42.5790571 C4.59889259,42.6314376 1.06825062,42.3077601 0.327423457,44.3050527 C1.7295716,44.4741508 4.20079383,45.1679082 4.6034358,45.8585342 C3.13825062,46.5169917 0.45292963,47.4598414 0.814398765,49.7050876 C2.64446049,49.3446867 4.0721642,48.3184267 5.70913951,48.5618254 C7.93076914,47.8845792 9.82983086,50.2331631 12.3609667,52.7519837 C15.3367691,55.7154696 19.6937074,58.5255146 21.7492259,57.6982437 C22.2450037,57.4981159 21.955658,57.0409249 22.3193988,56.9788654 C22.6922259,56.9222147 25.2066086,59.0971457 25.3951519,58.4779736 C26.0218309,56.4140665 26.1107074,57.5348392 27.2419667,58.0330237 C27.8163988,58.2821159 28.7281642,58.0908131 29.5024975,58.6781014 C29.9994111,56.4618922 33.1893123,59.7946039 33.9136704,57.8807216 C35.5108926,58.1175727 37.2100531,59.2061769 36.9596086,57.3480912 C39.0205222,58.6325531 39.2067938,57.9698254 40.2471889,58.4546301 C40.3448679,56.5598211 42.443263,58.0910977 43.225263,58.0765792 C51.4439296,57.9128901 53.4693494,55.5375466 55.0376086,52.3127274 C55.6716704,51.0094768 56.3730284,51.098296 56.1646086,51.8589525 C54.9975716,55.9699707 52.0473247,58.9448436 45.151584,58.621166 C44.7688185,58.6023773 44.5902136,58.7558182 44.4329049,58.9903919 C44.2764481,59.2249656 44.283263,59.413991 44.3241519,60.244678 C44.3894605,61.952739 49.1902136,67.4507027 51.8275469,71.2314957 C55.2863494,76.1777557 56.6084235,78.7310222 56.1847691,79.8318675 C55.4459296,81.7847506 53.9864235,92.1797252 54.0574111,92.5088116 C54.132942,92.8381827 54.6897691,93.1316845 55.248584,92.6736395 C55.9184235,93.3719518 54.6295716,96.0493374 55.4615469,96.1162365 C56.0828309,95.720251 56.8591519,95.3780694 56.8591519,95.3780694 C56.8591519,95.3780694 55.5569543,98.3848261 57.4270531,99.8213054 C57.6732383,98.9806548 58.4098062,98.3671762 58.4098062,98.3671762 C58.4098062,98.3671762 58.0415222,101.280274 59.8562506,102.09445 C59.882942,101.911972 59.8605099,101.791838 60.0646704,100.866639 C61.1516333,104.389515 61.6664358,104.714331 61.9458432,104.465239 C62.2383123,104.229526 61.4219543,102.993175 62.3740407,103.264472 C62.6997321,106.338128 63.660621,106.297703 63.660621,106.297703 C63.660621,106.297703 63.7804481,106.168745 64.2373247,105.452498 C65.322016,108.063554 71.3491519,110.670055 70.2599173,116.9375 C70.0469543,117.077561 69.5500407,117.057634 69.4038062,116.573114 C69.255016,116.088309 68.8779296,114.660085 68.7027321,114.464512 C68.5298062,114.268655 68.0104605,113.641512 63.9820531,113.210226 C59.9445593,112.792036 57.9481025,114.62934 57.9481025,114.62934 C57.9481025,114.62934 53.4846827,113.294491 51.0977938,116.119054 C52.5087444,115.820998 55.9894111,117.493474 55.9894111,117.493474 C55.9894111,117.493474 52.4065222,118.26751 51.8610531,121.550119 C54.4078062,120.367002 57.007658,120.691533 57.007658,120.691533 C57.007658,120.691533 53.8464358,122.862194 54.4853247,125.931295 C56.7103617,123.836928 59.0484111,123.28921 59.0484111,123.28921 C59.0484111,123.28921 56.9008926,126.522854 58.6801272,128.675865 C59.5498679,127.545982 61.1292012,125.179748 62.3271889,125.361942 C62.8107568,128.564556 64.8427074,129.698708 65.126658,129.472106 C65.3995346,129.249773 64.5763617,126.514029 66.6239296,124.823902 C70.1400901,124.067801 78.7738926,122.58435 82.112584,115.340748 C81.7198802,113.105181 74.654337,102.60573 74.8028432,95.0506911 C74.8451519,92.9355422 75.1668679,84.5822699 75.1668679,84.5822699 C75.1668679,84.5822699 75.4241272,80.1632314 73.4895716,76.9048203 C74.6878432,76.9939242 75.1535222,79.1378254 75.8369914,79.5247012 C76.5309667,79.9161319 77.0744481,78.9331428 77.0744481,78.9331428 L76.8197444,77.0915683 L78.1929296,78.5818516 C78.1929296,78.5818516 79.3753,76.2375378 78.3837444,73.3398123 C77.3899173,70.4415175 72.7513,64.9905255 72.1101395,63.0777818 C71.6708679,61.7477717 70.8275346,56.0909583 70.5041148,54.0247739 C70.1713247,51.9608668 70.2866086,45.2977208 70.2866086,45.2977208 C70.2866086,45.2977208 71.2628309,45.4434754 71.8971765,45.9516235 C72.4162383,45.3999198 71.6487198,43.5284543 71.8792877,43.2506097 C72.0967938,43.614142 72.9730654,43.6465952 73.4943988,44.1368087 C74.3329049,42.596707 73.5920778,41.0933287 73.5122877,40.897471 C74.9232383,41.4446199 76.2228802,41.3279024 76.431584,40.8362655 C75.8946333,40.3426359 75.1515346,37.4155887 75.1893,37.0463628 C75.7350531,36.8072343 77.2834358,38.0461479 77.5540407,37.5980665 C76.7109914,36.4115335 77.1681519,34.5756526 75.8369914,32.5393592 C76.3290778,32.1892067 76.8504111,32.8305836 77.4475593,31.9677281 C74.8454358,28.2845792 78.0421519,24.9441813 77.7715469,22.1976192 C77.3231889,17.8229903 74.6526333,17.0822611 74.6526333,17.0822611 C74.6526333,17.0822611 81.6849543,17.0512314 80.2118185,11.9603556 C78.725621,6.87745069 75.074016,10.1156497 72.682584,8.80670559 C70.2911519,7.49463007 70.3487938,4.01730254 66.6662383,3.82827712 C61.4531889,3.5569801 54.4983864,7.10319942 50.4532259,7.10319942 C49.1964605,7.09437444 49.3594481,7.30104982 46.3637691,6.51050225 C45.5783617,10.321471 47.1389543,10.7217267 46.686621,11.6124805 C45.8458432,13.2772706 46.1618802,13.6985923 46.1618802,13.6985923 L46.6065469,13.7074173 C46.4844481,14.2955596 46.4324852,15.4220259 47.3541889,16.7022176 C48.4601765,15.1720796 48.8261889,14.2047477 48.9491395,13.7486954 L49.2552383,13.7575204 C49.205263,14.4569714 49.2330901,15.7414333 49.9761889,16.7022176 C51.0975099,15.6913301 51.487942,14.4068683 51.6245222,13.7987985 L51.688979,13.7987985 C51.688979,13.7987985 54.2388556,13.6297005 55.8627691,14.437044 C57.4954852,15.2421101 57.4267691,18.0846083 57.4267691,18.0846083 C57.4267691,18.0846083 53.0011148,16.7545981 51.0977938,16.7958763 C48.3991272,16.8459794 44.2176704,17.8691079 41.6797198,17.3361929 C39.1352383,16.8001464 36.8346704,13.5343338 36.8346704,13.5343338 C36.8346704,13.5343338 32.840621,19.2056656 41.770584,20.5533258 C43.7627815,20.8525211 45.6394111,20.7400738 47.2633247,20.5066388 C47.2633247,20.5066388 51.5180407,19.6702582 52.430658,19.5569569 C53.3339049,19.4445095 57.0516704,19.925044 57.0516704,19.925044 C57.0516704,19.925044 56.8429667,21.1326431 55.0151765,21.1326431 C54.4075222,21.1349206 47.1591148,21.0071007 47.1591148,21.0071007" id="Fill-9" fill="#EDE9E6"></path>
                    <path d="M68.5009,3.7007419 C70.4593074,1.32112825 78.0794062,2.89225969 74.578863,8.55248918 C71.5729617,9.31086826 71.2759494,4.14341438 68.5009,3.7007419" id="Fill-11" fill="#EDE9E6"></path>
                    <path d="M36.5166457,16.2810097 C36.5166457,16.6824041 36.5921765,17.0539073 36.750621,17.3886873 C37.3383988,18.7053176 39.056584,19.5838304 41.8571889,20.0031593 C43.5086457,20.2511129 45.2413123,20.237733 47.181263,19.957611 C47.2110778,19.9510635 51.4161025,19.1257853 52.3622259,19.0079291 C53.1720531,18.9077229 55.7165346,19.2015094 56.7657321,19.3316067 C56.7657321,19.3316067 57.1007938,19.3748776 57.2223247,19.3905348 C57.2737198,19.190407 57.3557815,18.8234585 57.3935469,18.6298783 C57.2737198,18.5886001 56.9011765,18.5020584 56.9011765,18.5020584 C55.9317691,18.2239291 52.6109667,17.3089778 51.1068802,17.3434237 C50.1508185,17.3633511 48.9928679,17.5068282 47.7639296,17.660269 C45.5511025,17.9372595 43.2661519,18.2296227 41.5601765,17.8714992 C39.567979,17.4504622 37.7634728,15.5661862 36.9215593,14.5644084 C36.7205222,15.0267236 36.5166457,15.635078 36.5166457,16.2810097" id="Fill-13" fill="#C0B9B4"></path>
                    <path d="M47.1591148,73.399993 C47.1591148,73.399993 49.3509296,72.7950548 52.586263,73.9337621 C53.0144605,74.6542792 53.8575099,75.8860758 54.4609049,77.2209255 C53.2140778,75.9042951 47.1591148,73.399993 47.1591148,73.399993" id="Fill-15" fill="#C0B9B4"></path>
                    <path d="M1.35876049,39.576542 C2.70866173,40.1515893 4.31695802,41.0577156 5.01348889,41.8494019 C5.25740247,41.2846031 5.82757531,40.4783983 6.03826667,40.2036851 C5.35735309,39.9303954 2.99261235,39.0672552 1.35876049,39.576542" id="Fill-17" fill="#C0B9B4"></path>
                    <path d="M1.10683951,43.9591704 C2.08845679,44.1504732 3.71009877,44.5851747 4.56195062,45.1824267 C4.54406173,44.9629409 4.52759259,44.7465865 4.52759259,44.5330789 C4.52759259,44.0161057 4.58182716,43.5187753 4.6707037,43.0339707 C4.18940741,43.0339707 1.82693827,43.0729714 1.10683951,43.9591704" id="Fill-19" fill="#C0B9B4"></path>
                    <path d="M3.63911111,35.5689755 C3.83759259,35.8192064 6.66062963,39.3853531 6.76483951,39.5154504 C7.26288889,39.1328447 8.38761728,38.5113952 8.75022222,38.3112674 C6.27474074,35.9604061 4.53667901,35.5555956 3.63911111,35.5689755" id="Fill-21" fill="#C0B9B4"></path>
                    <path d="M1.28237778,49.0968186 C1.68388395,48.9855099 2.08879753,48.8599675 2.57463704,48.6820444 C3.42421728,48.370608 4.3050321,48.0514853 5.25995802,48.0671425 C5.02371111,47.5211323 4.8328963,46.9284351 4.70313086,46.3067009 C4.15737778,46.5213473 1.39539012,47.6777046 1.28237778,49.0968186" id="Fill-23" fill="#C0B9B4"></path>
                    <path d="M9.74515679,37.4660903 C9.74515679,37.7462123 9.70739136,37.950895 9.66195926,38.119993 C10.089021,38.0721673 11.4676012,37.9375152 12.2674901,38.026619 C11.0652432,34.6916299 9.69518148,33.4216866 8.87995926,32.9391593 C9.22723086,34.1846205 9.74515679,36.234009 9.74515679,37.4660903" id="Fill-25" fill="#C0B9B4"></path>
                    <path d="M52.2957531,115.710087 C53.9261975,115.989925 55.9783086,116.960103 56.2111481,117.073405 C56.2111481,117.073405 56.4175802,117.175319 56.5462099,117.226846 C56.5374074,117.182436 56.5374074,117.137742 56.5374074,117.093047 C56.5374074,116.203432 56.8259012,115.48747 57.3583086,114.944876 C56.1001235,114.727098 53.9173951,114.58476 52.2957531,115.710087" id="Fill-27" fill="#C0B9B4"></path>
                    <path d="M57.2914951,121.070011 L57.2914951,121.070011 C57.2693469,121.083391 55.0065444,122.693523 54.9088654,124.966668 C56.6900877,123.520794 58.3807296,122.978485 58.7955815,122.866892 C58.533779,122.595594 58.2986679,122.275333 58.0700877,121.901837 C58.0746309,121.906392 58.0700877,121.906392 57.7284951,121.256475 C57.7284951,121.256475 57.5842481,120.998842 57.533421,120.900629 C57.4865691,120.927673 57.4135938,120.981192 57.2914951,121.070011" id="Fill-29" fill="#C0B9B4"></path>
                    <path d="M56.0913778,117.947192 L56.0913778,117.947192 C56.066958,117.952031 53.4892543,118.570065 52.599637,120.802785 C54.9132667,119.984339 56.9849704,120.206672 57.0653284,120.224607 C57.0653284,120.224607 57.1806123,120.233432 57.2692049,120.246811 C56.8836,119.419825 56.6504765,118.614759 56.5593284,117.844993 C56.4906123,117.862643 56.3509086,117.889687 56.0913778,117.947192" id="Fill-31" fill="#C0B9B4"></path>
                    <path d="M62.7974679,125.260113 C62.8037148,125.268938 62.8037148,125.282318 62.8037148,125.282318 C63.1189,127.3374 64.0928506,128.455895 64.6982333,128.854158 L64.6982333,128.391558 C64.6982333,127.542082 64.809542,126.305446 65.6369741,125.211148 C64.8473074,125.47789 63.8557519,125.50038 62.7974679,125.260113" id="Fill-33" fill="#C0B9B4"></path>
                    <path d="M59.4433012,123.53648 C59.4322272,123.55413 58.4517457,125.061778 58.4517457,126.612413 C58.4517457,127.075013 58.553684,127.484094 58.7246222,127.853035 C59.536437,126.754751 60.6904123,125.219774 61.8591531,124.948192 C60.9783383,124.633055 60.1398321,124.147966 59.4433012,123.53648" id="Fill-35" fill="#C0B9B4"></path>
                    <path d="M17.2443494,5.25422338 C17.2443494,5.25422338 17.2488926,5.25194597 17.2488926,5.24767582 C16.8539173,2.65569325 15.8569667,1.49449644 15.1425469,0.979800726 C15.2547074,1.49677386 15.3611889,2.16861118 15.3742506,2.92243544 C15.3910037,3.62416383 15.3265469,4.38482033 15.1201148,5.140922 L15.0590654,5.36780944 C15.8447568,5.15401714 16.596658,5.11302367 17.2443494,5.25422338" id="Fill-37" fill="#C0B9B4"></path>
                    <path d="M14.2008815,5.24548381 C13.030721,3.2461984 11.8083136,2.43543878 10.9632765,2.09610399 C11.587684,2.97006187 12.3719556,4.34135018 12.4562889,5.91248163 L12.4761654,6.33380334 C13.1195975,6.0013008 13.7638815,5.74993115 14.3962395,5.57997908 L14.2008815,5.24548381 Z" id="Fill-39" fill="#C0B9B4"></path>
                    <path d="M9.76193827,7.78420334 C7.81318519,7.44287582 6.624,7.58179811 5.92292593,7.78989688 C6.79266667,8.00568192 7.98497531,8.39028032 9.0165679,9.05329267 L9.17955556,9.16004648 C9.45697531,8.74641104 9.81390123,8.32480465 10.2276173,7.92341031 L9.76193827,7.78420334 Z" id="Fill-41" fill="#C0B9B4"></path>
                    <path d="M8.75022222,9.86339753 C7.0155679,9.97584488 6.22675309,10.501643 5.85420988,10.9175558 C6.36106173,10.9175558 7.406,10.9699364 8.45974074,11.0798216 C8.48302469,10.6929458 8.58950617,10.2781717 8.78912346,9.8588427 L8.75022222,9.86339753 Z" id="Fill-43" fill="#C0B9B4"></path>
                    <path d="M12.0247975,6.59086652 L11.6332296,6.26064139 C10.4142296,5.24975396 9.20971111,4.8916305 8.32350123,4.77832912 C9.82531605,5.76701176 10.5252543,7.37258911 10.6138469,7.57954916 C10.7615012,7.42952447 11.3901679,6.96236979 11.8496,6.68651794 C11.9038346,6.65548816 11.9603407,6.62531242 12.0247975,6.59086652" id="Fill-45" fill="#C0B9B4"></path>
                    <path d="M16.2817,112.391837 L15.6660951,112.849882 C14.8585395,113.454821 14.2142556,114.549118 14.2142556,115.518728 C14.2142556,115.603277 14.2341321,115.674446 14.2409469,115.758995 C15.2435765,115.047303 16.5557123,114.477949 16.8518728,114.353261 L17.6670951,114.015065 C17.1335519,113.53937 16.6511198,112.994498 16.2817,112.391837" id="Fill-47" fill="#C0B9B4"></path>
                    <path d="M15.4265259,109.914238 L14.6178346,110.314494 C12.5736741,111.355272 11.9168963,112.40516 11.7195506,113.07899 C12.5492543,112.681012 13.9213037,112.140411 15.3433284,112.027109 L16.058884,111.975868 C16.0290691,111.915801 15.9901679,111.855734 15.9634765,111.78912 C15.6948593,111.188736 15.5173901,110.545651 15.4265259,109.914238" id="Fill-49" fill="#C0B9B4"></path>
                    <path d="M15.4585556,107.525628 L14.5158395,107.591958 C12.4739506,107.739136 11.5065309,108.530538 11.063,109.099891 C11.8361975,109.113556 13.0674074,109.18017 14.495963,109.460577 L15.3932469,109.63366 C15.3089136,108.911151 15.3432716,108.183801 15.4585556,107.525628" id="Fill-51" fill="#C0B9B4"></path>
                    <path d="M17.4763086,114.958085 C17.1557284,115.696821 16.9870617,116.345885 16.9870617,116.910684 C16.9870617,117.333429 17.0924074,117.6981 17.2644815,118.032026 C18.5754815,116.332505 19.4361358,115.696821 20.1360741,115.505519 C19.3407284,115.202623 18.5453827,114.736037 17.8389136,114.148464 L17.4763086,114.958085 Z" id="Fill-53" fill="#C0B9B4"></path>
                    <path d="M11.7495926,105.644085 C12.4239753,105.844213 13.432284,106.177854 14.6757037,106.711624 L15.5542469,107.089674 C15.7382469,106.377982 16.0202099,105.750839 16.3927531,105.292794 C13.914716,104.776675 12.471679,105.230165 11.7495926,105.644085" id="Fill-55" fill="#C0B9B4"></path>
                    <path d="M73.7894802,15.0244177 C73.7894802,15.0244177 73.3101716,15.0722434 73.336579,15.3703001 C73.3658259,15.6737656 73.7227519,15.7215913 73.7227519,15.7215913 C73.7227519,15.7215913 75.6638383,16.2476741 76.154221,14.1014954 C75.8282457,15.1269014 73.7894802,15.0244177 73.7894802,15.0244177" id="Fill-57" fill="#C0B9B4"></path>
                    <path d="M74.0268346,13.4509235 C73.8627111,13.4164776 73.3569951,13.690052 73.3657975,13.9923788 C73.3746,14.1546446 73.5520691,14.1637542 73.7230074,14.1902292 C74.5104025,14.3026765 76.2652173,12.9080447 75.4820815,12.6512662 C75.162637,12.5445124 75.0916494,13.5144064 74.0268346,13.4509235" id="Fill-59" fill="#C0B9B4"></path>
                    <path d="M64.9956148,6.56863326 C64.7962815,6.37078286 58.6470469,8.61574437 58.5161457,9.71801307 C58.5070593,9.80711692 58.6379605,10.0937865 58.9508741,10.0260334 C59.181442,9.9782077 62.2339111,9.66136238 64.5765037,9.78690487 C65.4771951,9.83700799 66.2892938,10.0371358 66.7640593,10.2238838 C67.3984049,10.4652898 68.2812074,10.3719158 68.3189728,10.0983413 C68.3482198,9.81821932 66.0854173,9.1720029 65.0890346,9.09200871 C63.2836765,8.93970661 59.6988,9.39462019 59.6988,9.39462019 C59.6988,9.39462019 65.2753062,6.85558751 64.9956148,6.56863326" id="Fill-61" fill="#C0B9B4"></path>
                    <path d="M47.0182469,14.3684654 C47.0182469,14.7664436 47.0957654,15.2680442 47.3777284,15.8331277 C47.9788519,14.9090667 48.3039753,14.1774472 48.4402716,13.7880093 C47.937679,13.7558408 47.4475802,13.7968343 47.0815679,13.7723521 C47.0480617,13.9223768 47.0182469,14.124782 47.0182469,14.3684654" id="Fill-63" fill="#C0B9B4"></path>
                    <path d="M49.7212012,14.1883219 C49.7212012,14.6941926 49.7921889,15.3480953 50.0715963,15.9308288 C50.7048062,15.1789972 51.0043741,14.2882434 51.1318679,13.7880662 C50.6593741,13.7880662 50.1689914,13.7857888 49.7365346,13.7513429 C49.728016,13.8791628 49.7212012,14.0226399 49.7212012,14.1883219" id="Fill-65" fill="#C0B9B4"></path>
                    <path d="M17.1302296,19.6382036 C18.4003407,15.0133438 15.1226988,10.6264738 15.1814765,7.04894001 C14.1212049,9.75906347 15.7272296,12.6556503 16.2928593,15.5368645 C16.9149951,18.6862443 16.7221926,21.2782269 14.5704148,21.2594382 C14.166637,21.2694019 14.2009951,21.6653874 14.4318469,21.6608325 C16.317279,21.5788456 16.7630815,20.7401877 17.1302296,19.6382036" id="Fill-67" fill="#C0B9B4"></path>
                    <path d="M64.4235395,10.5108665 C64.6521198,10.674271 64.8006259,10.9390205 64.8006259,11.2325223 C64.8006259,11.7341229 64.3857741,12.1321011 63.8777864,12.1321011 C63.3609963,12.1321011 62.948416,11.7341229 62.948416,11.2325223 C62.948416,10.9045746 63.1236136,10.6264453 63.3987617,10.467311 C62.5602556,10.6475114 61.8126136,11.2191425 61.8126136,11.5302943 C61.8126136,11.8972427 62.839663,12.6690016 63.8445642,12.7034475 C64.8028975,12.7378934 65.7478852,11.8727605 65.7478852,11.5858062 C65.7456136,11.356072 65.1444901,10.7408854 64.4235395,10.5108665" id="Fill-69" fill="#C0B9B4"></path>
                    <path d="M47.7357617,19.2688639 C47.5449469,19.6224325 47.3087,20.1772677 47.3087,20.8066882 C47.3087,21.4893432 47.5727741,22.0743541 48.0784901,22.5059242 L48.1926383,22.5992982 L50.2890457,22.5992982 L49.8574407,22.0131486 C49.5822926,21.6496163 49.3982926,21.1890092 49.1895889,20.672036 C48.953342,20.0548566 48.7193667,19.5245037 48.3422802,19.1729278 L47.9717247,18.8404253 L47.7357617,19.2688639 Z" id="Fill-71" fill="#EDE9E6"></path>
                    <path d="M50.4321852,19.1601743 C50.2390988,19.5592912 50.0028519,20.21661 50.0028519,21.1139114 C50.0028519,21.4486914 50.0528272,21.8267422 50.1348889,22.2170341 L50.1982099,22.5261932 L51.272963,22.4806449 C51.2664321,22.4806449 52.2400988,22.4484764 52.2400988,22.4484764 L52.9255556,22.4305418 L52.5439259,21.8811155 C52.3221605,21.5585766 52.1356049,21.1327001 51.9317284,20.6769325 C51.6798642,20.094199 51.4271481,19.5336703 51.0864074,19.0966914 L50.7070494,18.6096093 L50.4321852,19.1601743 Z" id="Fill-73" fill="#EDE9E6"></path>
                    <path d="M48.8330037,20.8046954 C48.6089667,20.250999 48.3994111,19.7405734 48.0742877,19.4402394 C47.8613247,19.822845 47.6949296,20.3008174 47.6949296,20.8069728 C47.6949296,20.8792808 47.6994728,20.95045 47.7071395,21.0204805 C48.0132383,21.0250353 48.4337691,21.034999 48.9261395,21.043824 C48.8926333,20.9592749 48.8628185,20.8846896 48.8330037,20.8046954" id="Fill-75" fill="#C0B9B4"></path>
                    <path d="M51.5891988,20.8204096 C51.3432975,20.280947 51.0982481,19.729528 50.7793716,19.3170312 C50.6317173,19.6250516 50.403421,20.2265737 50.3937667,21.064093 C50.8205444,21.0729179 51.2623716,21.0808889 51.7005074,21.0897139 C51.6590506,20.9983326 51.6246926,20.9115062 51.5891988,20.8204096" id="Fill-77" fill="#C0B9B4"></path>
                    <path d="" id="Fill-79" fill="#FFFFFF"></path>
                </g>
            </g>
        </g>
    </g>
</svg>