<?xml version="1.0" encoding="UTF-8"?>
<svg width="115px" height="140px" viewBox="0 0 115 140" version="1.1" xmlns="http://www.w3.org/2000/svg" xmlns:xlink="http://www.w3.org/1999/xlink">
    <!-- Generator: Sketch 53.2 (72643) - https://sketchapp.com -->
    <title>Group 17</title>
    <desc>Created with Sketch.</desc>
    <g id="Desktop" stroke="none" stroke-width="1" fill="none" fill-rule="evenodd">
        <g id="Limen-Tea-Pot" transform="translate(-590.000000, -4468.000000)">
            <g id="Group-17" transform="translate(590.000000, 4468.000000)">
                <path d="M57.3861101,0 L114.829179,0 L114.829179,84.4282178 C114.829179,114.772277 89.1249715,139.366337 57.4145755,139.366337 C25.7041795,139.366337 -2.84653465e-05,114.772277 -2.84653465e-05,84.4282178 L-2.84653465e-05,0 L57.3861101,0 Z" id="Fill-1" fill="#C0B9B4"></path>
                <path d="M38.1682884,20.733854 C37.7754666,21.3970965 37.5932884,22.2168985 37.9035606,22.9513045 C38.2764567,24.1753144 39.3069022,25.1573688 40.5536844,25.4534084 C41.7179171,25.8319975 42.9561597,25.6526658 44.1545507,25.6185074 C46.1755903,25.504646 48.1396993,25.0349678 49.9871002,24.2009332 C50.582026,23.9646708 51.2281894,23.7568738 51.8715062,23.7967252 C52.7026943,24.1297698 51.4672983,24.5795223 51.1371002,24.7617005 C49.9244765,25.3196213 48.6577686,25.7522946 47.4366052,26.2703639 C45.3500953,27.0190025 43.1155656,27.2979629 40.9066547,27.3207351 C39.3752191,27.2723441 37.7213824,27.0076163 36.5343775,25.957245 C35.8910606,25.2797698 35.5067785,24.3831114 35.2989814,23.4836064 C35.0741052,22.2709827 35.6804171,20.9217252 36.8531894,20.4321213 C37.2403181,20.2613292 37.6502191,20.1560074 38.0401943,19.9909084" id="Fill-5" fill="#EDE9E6"></path>
                <path d="M44.7153181,28.2488193 C44.2399468,28.0780272 44.6555408,27.3663936 44.5729913,26.9792649 C44.7210111,26.2818639 45.4781894,26.7515421 45.4810359,27.2639183 C45.4981151,27.8873094 46.3577686,28.0666411 46.6765804,27.5713441 C46.9413082,27.1016658 46.8416795,26.4526559 47.2771993,26.0797599 C47.8009616,25.7837203 47.9347488,26.5665173 48.1140804,26.8995619 C48.2734864,27.2667649 48.7545507,28.0637946 49.1672983,27.5201064 C49.5401943,26.8853292 49.6142042,26.1253045 49.9301696,25.4706015 C50.3628428,25.5503045 50.4710111,26.1423837 50.7784369,26.4241906 C51.2082636,26.6775322 51.7946498,26.3871856 52.1988577,26.1623094 C52.637224,25.8691163 53.2264567,25.351047 52.8848725,24.770354 C52.4635854,23.9363193 51.5982389,23.4068639 50.7271993,23.1449827 C50.2119765,22.9713441 49.6569022,23.375552 49.4946498,23.8566163 C49.2128428,24.0900322 48.6805408,23.8936213 48.6036844,24.4259233 C48.1653181,24.7646609 48.0030656,23.8651559 47.749724,23.626047 C47.6301696,23.295849 47.1007141,22.806245 46.9783131,23.4097104 C46.7619765,23.9249332 46.7875953,24.5454777 46.4403181,24.9980767 C45.9478676,25.265651 45.5151943,24.7134233 45.2618527,24.3519134 C45.039823,23.9818639 44.9373478,23.5520371 44.7665557,23.1649084 C44.3822735,23.2446114 44.3623478,23.8651559 44.2257141,24.1925074 C44.0833874,24.6223342 44.2598725,25.0692401 44.4989814,25.4193639 C44.5957636,26.1338441 43.6478676,25.9032748 43.4116052,25.4876807 C42.9817785,24.9895371 42.7540557,24.3291411 42.8052933,23.6715916 C42.8707636,23.2047599 42.5576448,22.5842153 42.9960111,22.2483243 C43.5738577,22.1003045 43.639328,22.8603292 43.5653181,23.2559975 C43.5453923,23.7029035 43.5994765,24.1611955 43.639328,24.5967153 C44.0150705,23.8594629 44.0606151,22.9941163 44.4278181,22.2511708 C44.5559121,21.7871856 45.3130903,21.2264183 45.5151943,21.9408985 C45.6461349,22.518745 45.572125,23.1250569 45.6973725,23.7029035 C45.7144517,24.0587203 46.2666795,24.5198589 46.2012092,23.8850817 C46.3805408,23.0738193 46.4431646,22.1800074 46.9640804,21.4968391 C47.2288082,20.9787698 47.9717537,21.0442401 48.1567785,21.5850817 C48.2734864,22.017755 48.3731151,22.8233243 49.0278181,22.5728292 C49.9557884,22.0832252 51.0175458,21.943745 52.0422983,21.7928787 C52.7311597,21.6448589 53.4968775,21.8555025 53.9494765,22.4162698 C54.6668032,23.2503045 54.6297983,24.4515421 54.362224,25.4535223 C54.117422,26.335948 53.7274468,27.2724579 52.9389567,27.7876807 C52.3724963,28.0637946 51.6494765,28.2602054 51.0573973,27.9470866 C50.6446498,27.5571114 50.4823973,26.9650322 50.1749715,26.4925074 C49.804922,26.6746856 49.9956399,27.406245 49.682521,27.7449827 C49.4775705,28.2288936 48.7630903,28.4338441 48.4215062,27.9727054 C48.159625,27.7279035 47.6728676,26.9934975 47.4280656,27.6538936 C47.1804171,28.0267896 46.8587587,28.507854 46.354922,28.4936213 C45.8653181,28.5277797 45.6546745,27.8986955 45.1821498,27.9300074 C45.0654418,28.0751807 44.9231151,28.2061213 44.7323973,28.2374332 L44.7153181,28.2488193 Z" id="Fill-7" fill="#EDE9E6"></path>
                <path d="M62.6911559,9.14285025 C62.9501906,9.15423639 63.2433837,9.10869183 63.4201535,8.89804827 C63.6760569,8.64755322 63.9524554,8.41983045 64.1915644,8.15510272 C64.3734579,7.93591955 64.4190025,7.56587005 64.1798936,7.36945916 C63.8411559,7.12465718 63.4255619,7.01364233 63.0412797,6.89978094 C62.5488292,6.76314728 62.0310446,6.70906312 61.5240767,6.77737995 C61.0487054,6.83146411 60.5704876,6.95671163 60.1634332,7.21859282 C59.858854,7.40931064 59.5371955,7.58864233 59.2926782,7.85337005 C59.2812921,8.05547401 59.5457351,8.13517698 59.693755,8.23195916 C60.3911559,8.57923639 61.1543119,8.75856807 61.8998193,8.9663651 C62.1673936,9.0318354 62.4352525,9.10869183 62.7085198,9.14000371 L62.6911559,9.14285025 Z M23.9782847,25.6413651 C24.1661559,25.385177 24.4109579,24.7959443 24.5248193,24.3319592 C24.6358342,23.867974 24.4935074,23.2331968 24.2031609,22.9229245 C23.9128144,22.6126522 23.2922698,21.8526275 22.819745,21.237776 C22.3472203,20.6229245 21.3680124,20.173172 20.6734579,20.2414889 C19.9646708,20.3098057 19.2131856,20.5973057 19.0025421,20.8848057 C18.7918985,21.1694592 19.0623193,21.3345582 19.6003144,21.2463156 C20.1411559,21.158073 20.8784084,21.3829493 21.2370718,21.7416126 C21.5985817,22.100276 21.9287797,22.7236671 21.9714777,23.1250285 C22.0141757,23.5263899 22.2618243,24.1640136 22.5180124,24.5426027 C22.7742005,24.9211918 23.1300173,25.427875 23.3121955,25.6669839 C23.4915272,25.9060928 23.7932599,25.8947067 23.9811312,25.6385186 L23.9782847,25.6413651 Z M22.7115767,26.0626522 C22.3329876,25.6755235 21.4078639,24.9240384 20.6563787,24.3803502 C19.9048936,23.8423552 18.8089777,23.6260186 18.219745,23.904979 C17.6305124,24.1839394 17.10675,24.6308453 17.0555124,24.9012661 C17.0042748,25.1716869 17.3373193,25.4051027 17.7927649,25.4221819 C18.2482104,25.4392611 18.9598441,25.6954493 19.3725916,25.9886423 C19.7853391,26.2846819 20.6535322,27.1585681 21.3025421,27.935672 C21.951552,28.712776 22.6888045,28.7640136 22.942146,28.0552265 C23.1954876,27.3435928 23.0930124,26.4469344 22.7115767,26.0626522 L22.7115767,26.0626522 Z M22.942146,28.3057215 L23.4004381,27.2012661 L22.942146,28.3057215 Z M21.5331114,31.4340631 C21.9031609,31.2831968 22.1394233,30.847677 22.0540272,30.4690879 C21.9686312,30.0904988 21.5558837,29.4414889 21.1345965,29.0287413 C20.7133094,28.6159938 20.0301411,28.0096819 19.6173936,27.6794839 C19.204646,27.3521324 18.4531609,27.1841869 17.9464777,27.3122809 C17.4397946,27.4375285 16.9245718,27.9641374 16.8078639,28.4765136 C16.6826163,28.9917364 16.9900421,29.4557215 17.4967252,29.5069592 C18.0005619,29.5610433 18.709349,29.8485433 19.0680124,30.1474295 C19.4295223,30.4463156 19.98175,30.9216869 20.2948688,31.2006473 C20.6108342,31.4796077 21.1716015,31.5849295 21.541651,31.4340631 L21.5331114,31.4340631 Z M22.5607104,112.674162 C22.0454876,112.7254 21.211453,112.992974 20.7047698,113.271934 C20.1980866,113.550895 19.7654134,114.529818 19.7397946,115.449533 C19.7141757,116.368679 19.8394233,117.157454 20.0159084,117.211538 C20.1923936,117.262776 20.5709827,116.88988 20.8584827,116.383197 C21.1431361,115.876514 21.8405371,115.483692 22.4069975,115.509311 C22.9706114,115.534929 23.7761807,115.756959 24.1917748,116.004608 C24.6073688,116.252256 25.4214777,116.451229 25.9993243,116.448667 C26.5771708,116.448382 26.9699926,115.956217 26.8732104,115.358444 C26.7764282,114.760672 26.4974678,114.074657 26.2583589,113.835548 C26.01925,113.596439 25.2990767,113.215004 24.6586064,112.990127 C24.0181361,112.765251 23.0730866,112.622925 22.5607104,112.674162 L22.5607104,112.674162 Z M22.6831114,121.151142 C22.8083589,120.923135 23.1613292,120.502132 23.4659084,120.217479 C23.7704876,119.932825 24.7183837,119.605474 25.5751906,119.494459 C26.429151,119.383444 27.377047,118.927999 27.6759332,118.483939 C27.9748193,118.037033 27.6930124,117.444954 27.0525421,117.16884 C26.4120718,116.88988 25.1766757,116.81587 24.3084827,117.000895 C23.4402896,117.18592 22.5094728,117.829236 22.239052,118.424162 C21.9686312,119.021934 21.9060074,119.975524 22.1024183,120.539137 C22.2959827,121.102751 22.5578639,121.378865 22.6859579,121.151142 L22.6831114,121.151142 Z M25.2734579,123.664632 C25.6776658,124.313642 26.1615767,124.390499 26.3466015,123.832578 C26.5316262,123.274657 27.2688787,122.600028 27.9862054,122.329608 C28.7035322,122.059187 28.9910322,121.361501 28.6295223,120.780808 C28.2680124,120.2004 27.4311312,119.901514 26.7735817,120.120697 C26.1160322,120.33988 25.3503144,120.960425 25.0656609,121.501266 C24.7810074,122.042108 24.8749431,123.012776 25.279151,123.661786 L25.2734579,123.664632 Z M36.3749431,33.8849295 C36.2582351,34.2208205 35.5323688,33.8422314 34.766651,33.0423552 C33.9980866,32.242479 33.3576163,30.1958205 33.3433837,28.4935928 L33.3149183,25.6043601 C33.2978391,23.9021324 32.8964777,22.1885186 32.423953,21.775771 C31.9514282,21.3715631 31.2198688,21.158073 30.7985817,21.3003998 C30.3772946,21.4427265 30.1979629,22.100276 30.4000668,22.7578255 C30.6021708,23.415375 30.4427649,24.3888899 30.0470965,24.9183453 C29.6514282,25.4506473 29.2642995,26.290375 29.1931361,26.7885186 C29.1162797,27.2866621 29.3297698,28.1605483 29.6685074,28.7355483 C30.0043985,29.3048552 30.2378144,30.0819592 30.1894233,30.4434691 C30.1381856,30.8135186 29.677047,30.2755235 29.1618243,29.2479245 C28.6466015,28.2203255 28.3363292,26.9308453 28.4729629,26.3729245 C28.60675,25.8263899 28.9454876,24.9069592 29.224448,24.3348057 C29.5034084,23.7654988 28.857245,22.2084443 27.8011807,20.8904988 L27.4539035,20.460672 C26.386453,19.1370334 25.0001906,17.9500285 24.3767995,17.8247809 C23.7534084,17.6995334 22.9051411,17.830474 22.4923936,18.1151275 C22.079646,18.3997809 22.361453,19.0772562 23.1214777,19.6180978 C23.8815025,20.1589394 24.5845965,21.1039889 24.6842252,21.7188403 C24.7867005,22.3336918 25.0742005,23.0253998 25.3275421,23.2531225 C25.5808837,23.4808453 25.3047698,24.9610433 24.7126906,26.5664889 L24.2828639,27.7250285 C23.6936312,29.3190879 23.2438787,31.5763899 23.2865767,32.7406225 C23.3292748,33.9048552 23.804646,35.6497809 24.3454876,36.6176027 C24.8863292,37.588271 25.5324926,38.9802265 25.7858342,39.7146324 C26.0391757,40.4490384 26.508854,41.3513899 26.8276658,41.735672 C27.1493243,42.1057215 28.1484579,42.4586918 29.0508094,42.5184691 C29.9531609,42.5782463 30.9323688,43.7168601 31.2284084,45.0461918 C31.524448,46.37837 32.1165272,48.1716869 32.546354,49.0313403 C32.9761807,49.8853007 33.4117005,50.0418601 33.5113292,49.3672314 C33.6138045,48.6926027 34.1034084,48.8577017 34.5987054,49.7344344 C35.096849,50.6111671 35.5522946,50.935672 35.6092252,50.4546077 C35.6690025,49.9735433 35.9394233,50.1386423 36.2126906,50.8189641 C36.4859579,51.4992859 36.8246955,52.3418601 36.9641757,52.6891374 C37.1036559,53.0364146 37.7156609,53.5630235 38.3219728,53.8590631 C38.9282847,54.1551027 39.4605866,54.0440879 39.5175173,53.6142611 C39.568755,53.1844344 39.9900421,53.3438403 40.4511807,53.9672314 C40.9151658,54.5906225 42.6458589,54.7756473 44.2996955,54.3742859 L46.4118243,53.8647562 C48.0656609,53.4662413 50.5022946,52.654979 51.8202401,52.0657463 C53.1438787,51.4765136 55.1222203,50.1301027 56.2209827,49.0768849 C57.3168985,48.0236671 58.5924307,46.9192116 59.0561312,46.623172 C59.5201163,46.3271324 58.9280371,47.0814641 57.7384703,48.2997809 L55.8964777,50.1870334 C54.7094728,51.4053502 52.3980866,52.783073 50.7727153,53.2499047 L49.5487054,53.6000285 C47.911948,54.0668601 45.2789035,54.9350532 43.6763045,55.5271324 L42.2074926,56.0736671 C40.6134332,56.6685928 38.136948,57.2008948 36.7022946,57.260672 C35.2676411,57.3204493 33.579646,57.0585681 32.9477153,56.6771324 C32.3157847,56.2956968 31.5358342,54.7443354 31.2141757,53.2328255 C30.8925173,51.7156225 30.3203639,50.067479 29.9417748,49.5693354 C29.5631856,49.0711918 28.857245,48.1062166 28.3790272,47.4230483 C27.8979629,46.73988 26.8418985,46.1734196 26.0334827,46.1677265 C25.2250668,46.1591869 24.3967252,46.4011423 24.1946213,46.702875 C23.9925173,47.0074542 24.5703639,47.5938403 25.481255,48.0065879 C26.392146,48.4193354 27.1293985,49.1025037 27.1208589,49.5237908 C27.1123193,49.945078 27.3001906,50.642479 27.5336064,51.0723057 C27.7698688,51.5021324 27.6047698,51.5505235 27.1664035,51.180474 C26.7280371,50.8104245 25.5410322,50.1671077 24.5305124,49.7572067 C23.5199926,49.3444592 22.2760569,48.6812166 21.7722203,48.2855483 C21.2655371,47.88988 20.4315025,47.8073304 19.9162797,48.1005235 C19.4010569,48.3965631 19.2501906,48.8776275 19.5803886,49.1736671 C19.9105866,49.4697067 20.6535322,49.9365384 21.2370718,50.2154988 C21.8177649,50.4944592 22.777047,51.1292364 23.3662797,51.6245334 C23.9555124,52.122677 24.6130619,52.825771 24.8237054,53.1872809 C25.034349,53.5487908 24.5504381,53.6341869 23.7505619,53.3723057 C22.9506856,53.1104245 22.0141757,52.8684691 21.6953639,52.8371572 C21.3680124,52.8029988 20.6079876,52.4044839 20.0102153,51.9490384 C19.4124431,51.4935928 18.336453,51.3341869 17.6191262,51.5960681 C16.9017995,51.8579493 16.1987054,52.2934691 16.0563787,52.5610433 C15.914052,52.8314641 16.3694975,53.2157463 17.0668985,53.4150037 C17.7642995,53.6142611 18.7605866,54.2034938 19.2729629,54.7187166 C19.7853391,55.2339394 20.4457351,55.658073 20.7360817,55.6609196 C21.0264282,55.6612042 21.5501906,55.6723057 21.9003144,55.6751522 C22.2504381,55.6779988 21.621354,55.6409938 20.4998193,55.5926027 C19.3782847,55.5413651 17.9009332,55.7690879 17.2177649,56.0992859 C16.5345965,56.4294839 15.914052,56.9532463 15.8371955,57.2635186 C15.7603391,57.5737908 16.2100916,57.8043601 16.8334827,57.7702017 C17.4568738,57.7360433 18.7748193,57.9239146 19.7597203,58.1829493 C20.7446213,58.4448304 21.9316262,58.692479 22.3956114,58.735177 C22.8595965,58.777875 22.6660322,58.9628998 21.9657847,59.1479245 C21.2655371,59.3329493 20.1696213,59.4923552 19.529151,59.5008948 C18.8886807,59.5094344 18.0802649,59.7371572 17.7358342,60.007578 C17.3914035,60.2779988 17.2661559,60.8786176 17.4597203,61.3426027 C17.6532847,61.8065879 18.0888045,62.0400037 18.4246955,61.8635186 C18.7605866,61.6870334 20.0102153,61.8378998 21.2000668,62.1994097 C22.3899183,62.5609196 23.8644233,62.8711918 24.4821213,62.888271 C25.0969728,62.9053502 26.4746955,63.9984196 27.5563787,65.3163651 L27.9975916,65.8572067 C29.0735817,67.1751522 30.3402896,68.7350532 30.8128144,69.3271324 C31.2853391,69.9163651 32.1136807,70.2010186 32.6516757,69.9562166 C33.1896708,69.7114146 33.983854,69.4922314 34.4136807,69.4666126 C34.8435074,69.4409938 35.5892995,69.5178502 36.0703639,69.6345582 C36.5514282,69.7512661 36.8531609,70.0985433 36.7449926,70.400276 C36.6368243,70.7020087 37.0410322,70.9866621 37.6501906,71.0293601 C38.2565025,71.0720582 39.2641757,70.7874047 39.8875668,70.400276 C40.5109579,70.0131473 41.3392995,69.6459443 41.7264282,69.5890136 C42.1135569,69.5292364 42.161948,69.867974 41.8345965,70.3404988 C41.507245,70.8130235 41.7605866,71.0805978 42.4010569,70.938271 C43.0415272,70.7959443 44.0406609,70.4230483 44.6242005,70.1099295 C45.2048936,69.7968106 45.5920223,69.7854245 45.4781609,70.0786176 C45.367146,70.3746572 45.8368243,70.4970582 46.5199926,70.3547314 C47.2031609,70.2124047 48.7630619,69.7284938 49.9842252,69.2815879 C51.2053886,68.8346819 53.4769233,68.3792364 55.0282847,68.2710681 C56.579646,68.1600532 58.629151,67.3744097 59.5798936,66.5232958 C60.5334827,65.6721819 62.2445347,64.815375 63.3800173,64.607578 C64.5186312,64.405474 65.1448688,64.5364146 64.7748193,64.8979245 C64.4050545,65.2594344 63.1152896,66.1503998 61.900104,66.8762661 C60.6928886,67.6021324 58.7119851,68.3536176 57.4962302,68.5471819 C56.2807599,68.7407463 54.9485817,69.0026275 54.5386807,69.1307215 C54.1287797,69.2559691 53.6591015,69.8167364 53.4996955,70.3718106 C53.3402896,70.9297314 52.0422698,72.1423552 50.6133094,73.067479 L48.6264282,74.3569592 C47.2031609,75.2849295 45.1109579,77.0839394 43.9837302,78.370573 L41.0603391,81.6782463 C39.9331114,82.9534938 38.3703639,85.2307215 37.5875668,86.7422314 L37.3996955,87.1065879 C36.6168985,88.6180978 36.2867005,89.7624047 36.6652896,89.6542364 C37.0438787,89.5460681 36.7620718,90.7131473 36.0362054,92.2531225 L35.9422698,92.4495334 C35.2164035,93.9895087 34.9431361,95.1651275 35.3302649,95.0626522 C35.7173936,94.9598923 35.8141757,95.4042364 35.543755,96.0447067 C35.2733342,96.685177 34.9431361,98.1625285 34.809349,99.3239146 C34.6755619,100.488147 34.8096337,101.219707 35.1167748,100.949286 C35.421354,100.678865 35.592146,101.2254 35.5010569,102.159063 C35.4071213,103.095573 35.5466015,105.190623 35.8084827,106.81884 C36.0703639,108.447058 36.4574926,110.226142 36.6624431,110.772677 C36.8730866,111.322058 35.9906609,110.954855 34.7011807,109.961415 C33.4117005,108.967689 32.0880619,107.504855 31.7578639,106.710672 C31.4305124,105.919051 30.3516757,105.048296 29.3667748,104.777875 C28.3818738,104.507454 27.3315025,104.521687 27.0354629,104.809187 C26.7394233,105.09384 26.8931361,105.557825 27.371354,105.836501 C27.8524183,106.115746 28.4160322,107.094954 28.6295223,108.014385 C28.8401658,108.933816 29.4550173,110.19483 29.9930124,110.817937 C30.5310074,111.441613 30.5537797,111.800276 30.0385569,111.615251 C29.5233342,111.430226 28.3875668,110.684434 27.5079876,109.958568 C26.631255,109.232702 25.4527896,108.654855 24.8863292,108.671934 C24.3227153,108.689014 23.1983342,108.495449 22.3870718,108.242108 C21.5786559,107.988766 20.599448,108.079855 20.2094728,108.441365 C19.8223441,108.802875 19.4693738,109.412033 19.4266757,109.790623 C19.3839777,110.169212 19.5832351,110.260016 19.8707351,109.98988 C20.1553886,109.719459 21.0748193,110.058197 21.908854,110.741365 C22.7428886,111.424533 24.2202401,112.093469 25.1880619,112.227256 C26.1587302,112.361043 27.2831114,113.639137 27.6873193,115.062405 C28.0915272,116.485672 28.9341015,118.535177 29.5574926,119.614014 C30.1808837,120.69285 32.0083589,122.027875 33.616651,122.580103 L33.6536559,122.594335 C35.261948,123.146563 36.9727153,123.462528 37.4537797,123.294583 C37.9348441,123.126637 39.036453,123.379979 39.9074926,123.861043 C40.7756856,124.342108 42.5206114,124.749162 43.7844728,124.765957 C45.0483342,124.783321 46.4089777,123.969212 46.804646,122.958692 C47.2003144,121.948172 47.4565025,120.319954 47.3711064,119.340746 C47.2857104,118.361254 47.6045223,116.878209 48.077047,116.044459 C48.5495718,115.210425 49.3636807,113.51389 49.8845965,112.272801 C50.4083589,111.034558 50.8011807,110.627504 50.7584827,111.367603 C50.7157847,112.110264 51.3420223,111.490004 52.1475916,109.992726 L52.6172698,109.121402 C53.4256856,107.62441 54.3251906,105.219088 54.6354629,103.778741 C54.9403267,102.335548 55.4211064,100.764261 55.7086064,100.283197 C55.9932599,99.8021324 56.2579876,99.7876151 56.2924307,100.251885 C56.3263045,100.71587 56.9952401,100.323048 57.7780371,99.3779988 C58.5608342,98.4329493 59.2183837,97.9034938 59.2354629,98.1966869 C59.2525421,98.4927265 60.0467252,97.7327017 60.9974678,96.5115384 C61.9510569,95.2875285 63.1241139,93.6365384 63.602047,92.8622809 C64.083396,92.0794839 64.7321213,91.2796077 65.0426782,91.0831968 C65.3555124,90.8896324 65.9820347,92.0709443 66.4371955,93.7105483 L66.6535322,94.4933453 C67.1092624,96.1329493 68.1283218,98.2593106 68.922505,99.2214394 C69.7135569,100.183568 70.323,100.479608 70.2714777,99.8818354 C70.2202401,99.2840631 70.9976287,99.9188403 72.0078639,101.296563 L72.6682599,102.207454 C73.6676782,103.585177 74.4160322,104.311043 74.3309208,103.821439 C74.2452401,103.331835 75.0251906,104.034929 76.0616139,105.384187 L76.1552649,105.506588 C77.1914035,106.855845 78.1706114,107.669954 78.3300173,107.314137 C78.4894233,106.961167 79.2836064,107.379608 80.0920223,108.247801 C80.9007228,109.115994 82.3977153,110.274533 83.4170594,110.809682 C84.4361188,111.356217 84.4102153,111.820202 83.354151,111.837281 C82.3012178,111.85436 81.0029134,111.965375 80.4737426,112.082083 C79.9414406,112.201637 78.5893366,112.20733 77.4675173,112.096316 C76.3462673,111.988147 75.1589777,112.483444 74.8316262,113.200771 C74.5042748,113.918098 74.60675,114.427627 75.0621955,114.336538 C75.5179257,114.242603 76.4342252,114.23691 77.1003144,114.322306 C77.7664035,114.407702 79.0928886,114.44186 80.0749431,114.399162 C81.0456114,114.356464 82.2670594,114.157207 82.7879752,113.955103 C83.3088911,113.752999 82.3806361,113.892479 80.7211064,114.265375 L78.8483713,114.686662 C77.1888416,115.059558 75.4037797,115.523543 74.89425,115.717108 C74.3793119,115.910672 73.3742005,116.124162 72.6571584,116.192479 C71.939547,116.260796 70.9492376,116.929731 70.4337302,117.67837 C69.927047,118.429855 69.7280743,119.483073 69.9899554,120.023915 C70.2518366,120.564756 70.9264653,120.493593 71.4926411,119.870202 C72.0591015,119.246811 73.126552,118.748667 73.8697822,118.765746 C74.6124431,118.782825 75.6602525,118.645907 76.2008094,118.458321 C76.7390891,118.273296 76.6220965,118.458321 75.9389282,118.870783 C75.2560446,119.283816 74.1598441,119.995449 73.5022946,120.450895 C72.844745,120.90634 72.0790272,121.672058 71.7943738,122.153123 C71.5097203,122.634187 71.3958589,123.570697 71.5495718,124.236786 C71.7004381,124.902875 72.1846337,124.868717 72.623,124.159929 C73.0613663,123.451142 74.0203639,122.617108 74.7519233,122.303989 C75.4863292,121.99087 76.4940025,121.467108 76.9892995,121.139756 C77.4874431,120.809558 78.1965149,120.425276 78.5691262,120.285796 C78.9391757,120.143469 78.4638045,120.667231 77.5130619,121.450028 C76.5597574,122.235672 75.2358342,123.414137 74.5384332,124.071687 C73.8555495,124.729236 73.4823688,125.722677 73.7100916,126.277751 C73.9378144,126.832825 74.4900421,127.598543 74.9372327,127.979979 C75.383854,128.358568 75.879151,128.008444 76.0414035,127.197182 C76.2008094,126.388766 76.9041881,125.526266 77.6044356,125.281464 C78.3046832,125.036662 79.5654134,124.231093 80.4079876,123.488147 C81.2505619,122.745202 81.162604,123.146563 80.2087302,124.376266 C79.2551411,125.605969 78.4751906,127.276885 78.4751906,128.076761 C78.4751906,128.876637 78.9306361,129.602504 79.4857104,129.670821 C80.0407847,129.739137 80.5246955,129.337776 80.5591386,128.782702 C80.593297,128.227627 81.1936312,127.501761 81.8938787,127.17441 C82.5941262,126.844212 83.6903267,125.859311 84.330797,124.982578 C84.9712673,124.105845 86.2690025,123.092479 87.2114901,122.728123 C88.156255,122.366613 89.929646,121.102751 91.1565025,119.924286 L91.7599678,119.343593 C92.9839777,118.162281 94.7772946,116.052999 95.7422698,114.649657 L96.522505,113.519583 C97.4871955,112.119088 98.4037797,110.414014 98.554646,109.730845 C98.705797,109.047677 98.554646,108.028618 98.2190396,107.462157 C97.8828639,106.898543 96.687604,105.5379 95.5657847,104.441984 C94.44425,103.346068 93.3341015,101.071687 93.0978391,99.3865384 L92.7021708,96.5599295 C92.4661931,94.8747809 92.0392129,92.702875 91.7514282,91.7350532 C91.4667748,90.7672314 91.6432599,90.2263899 92.1499431,90.5395087 C92.6569109,90.8526275 93.049448,90.6163651 93.0241139,90.0185928 C92.9982104,89.4208205 92.5996955,88.433073 92.1357104,87.8267611 C91.6720099,87.2204493 91.7827401,86.8617859 92.3805124,87.0297314 C92.9782847,87.197677 93.3454876,86.8133948 93.1917748,86.175771 C93.0409084,85.5353007 92.6110817,84.5959443 92.2413168,84.0921077 C91.8709827,83.5854245 91.85675,83.172677 92.2097203,83.172677 C92.5626906,83.172677 92.210005,82.0141374 91.4269233,80.6107958 C90.6441262,79.1932215 89.4485817,76.9529988 88.773953,75.6293601 C88.0993243,74.3057215 87.25675,72.82837 86.9040644,72.3501522 C86.5508094,71.8690879 86.8525421,71.2827017 87.5784084,71.0464394 C88.3042748,70.810177 89.1867005,69.9960681 89.5396708,69.2388899 C89.8929257,68.4788651 89.2464777,67.6789889 88.0993243,67.4598057 C86.9607104,67.2406225 85.4008094,66.3439641 84.6550173,65.4672314 C83.9038168,64.5904988 83.0780371,63.3636423 82.8161559,62.7374047 C82.5542748,62.1140136 82.5685074,61.5617859 82.8477525,61.5105483 C83.1264282,61.4593106 83.2915272,61.0266374 83.2149554,60.545573 C83.1378144,60.0645087 82.8844728,59.230474 82.6482104,58.6896324 C82.411948,58.1487908 82.4805495,57.7645087 82.8019233,57.835672 C83.1235817,57.9039889 83.2061312,57.3432215 82.986948,56.5945829 C82.7677649,55.8430978 82.5058837,54.8866621 82.4034084,54.465375 C82.3012178,54.0440879 82.411948,53.7338156 82.6482104,53.7765136 C82.8844728,53.8192116 82.8901658,53.2328255 82.6652896,52.4728007 C82.4375668,51.712776 82.2240767,50.8445829 82.1899183,50.5400037 C82.1557599,50.2354245 82.3350916,50.1130235 82.5884332,50.2638899 C82.8417748,50.4147562 82.8901658,49.663271 82.6966015,48.592974 C82.5033218,47.522677 82.571354,46.8395087 82.8503144,47.075771 C83.1292748,47.3120334 83.3142995,46.3328255 83.2633465,44.898172 C83.2118243,43.4749047 82.8477525,41.4083205 82.4517995,40.3437166 C82.0561312,39.26488 80.93175,37.2495334 79.9528267,35.8689641 C78.9733342,34.4855483 77.4219728,32.492974 76.5082351,31.4397562 C75.5890891,30.3865384 74.7604629,28.5647562 74.6693738,27.4261423 C74.5754381,26.2704493 74.2793985,24.5796077 74.0121089,23.6544839 C73.7414035,22.7350532 73.1834827,21.770078 72.7707351,21.5081968 C72.3579876,21.2463156 71.9711436,20.2044839 71.9167748,19.1939641 C71.8569975,18.1834443 71.5182599,16.9964394 71.1655743,16.558073 C70.8123193,16.1197067 70.6813787,15.1888899 70.8749431,14.4886423 C71.0687921,13.7883948 71.0485817,12.4704493 70.8293985,11.5595582 C70.6102153,10.6486671 70.0295223,9.615375 69.5427649,9.2538651 C69.0534455,8.9008948 67.9230866,8.61624134 67.0292748,8.62478094 C66.1357475,8.63332054 64.9285322,8.94928589 64.3478391,9.33072153 C63.767146,9.70931064 63.027047,10.0822067 62.7085198,10.1590631 C62.3865767,10.2359196 61.367802,9.97403837 60.439547,9.57552351 C59.5115767,9.17700866 57.9886807,8.91797401 57.0521708,8.99198391 C56.1156609,9.06884035 54.4048936,9.42750371 53.252047,9.78901361 C52.096354,10.1505235 50.2831114,11.1439641 49.221354,11.995078 C48.1595965,12.8461918 46.7932599,13.9791126 46.186948,14.5085681 C45.5806361,15.04087 44.2142995,15.5987908 43.1525421,15.7496572 C42.0907847,15.9005235 40.9578639,16.3787413 40.639052,16.8085681 C40.3173936,17.2383948 40.1124431,18.0183453 40.1807599,18.5392611 C40.2490767,19.0630235 40.4767995,19.5782463 40.6874431,19.677875 C40.8980866,19.7888899 41.1201163,20.4492859 41.177047,21.1495334 C41.2368243,21.8497809 41.4702401,22.6154988 41.6979629,22.8517611 C41.9256856,23.0880235 43.3176411,23.4210681 44.7949926,23.6032463 C46.2723441,23.7854245 48.1595965,23.904979 48.9936312,23.8793601 C49.8276658,23.8537413 50.9862054,24.0672314 51.5839777,24.3547314 C52.1732104,24.6393849 52.3383094,25.2770087 51.9511807,25.7637661 C51.564052,26.25337 50.8609579,26.8596819 50.3884332,27.1130235 C49.9159084,27.3663651 48.9793985,27.5656225 48.3047698,27.5570829 C47.6301411,27.5485433 46.394745,27.7563403 45.5607104,28.015375 C44.7266757,28.2772562 44.0378144,28.9319592 44.0292748,29.4728007 C44.0207351,30.0136423 44.254151,30.7907463 44.5501906,31.2063403 C44.8462302,31.6190879 46.0787797,31.8468106 47.29425,31.7130235 C48.5097203,31.5792364 49.7764282,31.4198304 50.1151658,31.3600532 C50.4510569,31.300276 50.8125668,31.9208205 50.9121955,32.7406225 C51.0146708,33.557578 51.1940025,34.8470582 51.3107104,35.6156225 C51.4274183,36.3756473 51.1313787,37.5341869 50.6503144,38.1775037 C50.16925,38.8350532 49.2725916,39.0912413 48.6577401,38.7439641 C48.0428886,38.3995334 47.5248193,38.4678502 47.5191262,38.897677 C47.502047,39.3275037 46.9498193,39.1197067 46.2922698,38.4393849 C45.6347203,37.7590631 45.1109579,37.4544839 45.1280371,37.7647562 C45.1451163,38.077875 44.621354,37.8159938 43.9638045,37.1812166 C43.306255,36.5492859 42.7397946,36.3841869 42.7084827,36.8140136 C42.6743243,37.2438403 42.1448688,37.0246572 41.5271708,36.3244097 C40.9123193,35.6241621 40.4284084,35.2996572 40.4540272,35.6042364 C40.479646,35.9088156 40.271849,35.8917364 39.9900421,35.570078 C39.7110817,35.2484196 39.3438787,34.8271324 39.1787797,34.6364146 C39.0108342,34.4456968 38.3703639,34.0585681 37.7555124,33.7824542 C37.1406609,33.5034938 36.5400421,33.5518849 36.4233342,33.887776 L36.3749431,33.8849295 Z M55.7313787,15.5817116 C56.1925173,15.8151275 56.5654134,16.1937166 56.8500668,16.6235433 C57.1517995,17.0505235 57.4765891,17.4661176 57.7638045,17.9016374 C57.9203639,18.1692116 57.5987054,18.3542364 57.3652896,18.3029988 C56.6536559,18.3027141 55.9420223,18.2859196 55.2360817,18.4595582 C54.7720965,18.5591869 54.3138045,18.6815879 53.8469728,18.7669839 C53.4228391,18.8039889 52.9987054,18.6702017 52.6656609,18.4111671 C52.2699926,18.1350532 51.8230866,17.9073304 51.5412797,17.4974295 C51.2253144,17.090375 51.1285322,16.5666126 50.8495718,16.1367859 C50.7357104,15.8805978 50.3969728,15.6671077 50.5449926,15.3511423 C50.7300173,14.9412413 51.1883094,14.7619097 51.5896708,14.6366621 C51.8714777,14.545573 52.2472203,14.5284938 52.426552,14.8131473 C52.5831114,15.0664889 52.4920223,15.3739146 52.5005619,15.6557215 C52.4635569,16.0940879 52.5745718,16.5637661 52.8763045,16.8911176 C53.1495718,17.133073 53.5651658,17.0220582 53.7985817,16.7801027 C54.1401658,16.4669839 54.3764282,16.0542364 54.5130619,15.6130235 C54.6411559,15.2999047 55.0510569,15.2088156 55.3214777,15.3909938 C55.4552649,15.4564641 55.5918985,15.5190879 55.7256856,15.5845582 L55.7313787,15.5817116 Z" id="Fill-9" fill="#EDE9E6"></path>
                <path d="M36.5999047,21.6646708 C37.0439641,21.3060074 36.8247809,22.2254381 36.7536176,22.4417748 C36.5458205,23.3384332 36.8874047,24.2977153 37.5848057,24.886948 C38.2167364,25.4249431 38.9169839,25.9487054 39.7624047,26.0682599 C40.6704493,26.244745 41.5841869,26.4240767 42.5121572,26.4411559 C41.3963156,26.4240767 40.2349295,26.5863292 39.1760186,26.1308837 C38.4956968,25.8263045 37.6844344,25.6868243 37.2119097,25.0548936 C36.7166126,24.3432599 36.0505235,23.571849 36.1672314,22.6410322 C36.2213156,22.2852153 36.377875,21.9464777 36.5999047,21.6675173 L36.5999047,21.6646708 Z M44.4563403,22.6979629 C46.3350532,22.7321213 48.2137661,22.7321213 50.092479,22.7719728 C50.9578255,22.83175 51.7719344,23.1505619 52.6031225,23.3668985 C53.4570829,23.6430124 54.1459443,24.5966015 53.9011423,25.5131856 C53.7702017,26.073953 53.7388899,26.6973441 53.3176027,27.1385569 C52.7084443,27.7448688 51.8430978,27.9412797 51.0631473,28.2344728 C50.3258948,28.5134332 49.56587,28.7269233 48.7859196,28.8180124 C47.7668601,28.9631856 46.7534938,29.1282847 45.742974,29.3246955 C45.4725532,29.4043985 44.5844344,29.2222203 45.045573,28.8806361 C45.6120334,28.7155371 46.2069592,28.6472203 46.7848057,28.5134332 C48.2621572,28.1889282 49.7452017,27.8729629 51.2083205,27.4801411 C52.0338156,27.2324926 52.8422314,26.7286559 53.2293601,25.9259332 C53.4314641,25.4875668 53.4770087,24.9495718 53.1952017,24.5339777 C52.8251522,23.8764282 52.067974,23.5604629 51.3449542,23.492146 C49.9928502,23.2644233 48.6208205,23.2160322 47.2573304,23.1078639 C46.3122809,23.033854 45.3615384,23.082245 44.4164889,22.996849 C44.1688403,22.9313787 43.6393849,22.9370718 43.5767611,22.7150421 C43.8699542,22.6694975 44.1716869,22.7065025 44.4677265,22.7008094 L44.4563403,22.6979629 Z M63.1893849,79.4012178 C62.3923552,78.6750668 61.7433453,77.8097203 61.0345582,77.0013045 C60.6104245,76.5173936 60.2176027,76.0081485 59.7706968,75.5470099 C59.4120334,75.2506856 59.010672,74.8806361 58.5125285,74.8977153 C58.0713156,75.0004752 58.3161176,75.5837302 58.4328255,75.8658218 C58.8740384,76.759349 59.2867859,77.6673936 59.8560928,78.4874802 C60.4051894,79.3013045 60.8922314,80.1581114 61.5241621,80.9124431 C61.9796077,81.4165644 62.4265136,81.9286559 62.9047314,82.4128515 C63.3003998,82.7826163 63.770078,83.0615767 64.2511423,83.3006856 C64.5500285,83.4230866 64.7749047,83.1071213 64.7461547,82.833854 C64.7834443,82.3670223 64.8460681,81.9001906 64.8688403,81.4333589 C64.8517611,80.986453 64.5841869,80.6050173 64.2369097,80.3402896 L63.1779988,79.4012178 L63.1893849,79.4012178 Z" id="Fill-13" fill="#C0B9B4"></path>
                <path d="M57.5217921,14.3605767 C58.1110248,14.8074827 58.5664703,15.4223342 58.8656411,16.0941163 C58.9393663,16.3332252 59.1073119,16.6207252 58.9678317,16.8541411 C58.7258762,16.8740668 58.5721634,16.6264183 58.4127574,16.4727054 C57.8776089,15.9090916 57.388005,15.2970866 56.7503812,14.8387946 C56.2778564,14.468745 55.7427079,14.1840916 55.173401,13.9905272 C54.4048366,13.6831015 53.5907277,13.520849 52.8022376,13.2817401 C52.5375099,13.2589678 52.255703,13.0283985 52.4210866,12.743745 C52.6231906,12.3594629 53.0897376,12.2313688 53.4885371,12.1829777 C54.0407649,12.1488193 54.5585495,12.4021609 55.037052,12.6441163 C55.5351955,12.9259233 55.984948,13.2874332 56.4571881,13.6090916 C56.8101584,13.8595866 57.1631287,14.1100817 57.5189455,14.3577302 L57.5217921,14.3605767 Z M64.9797129,11.7559975 C65.1394035,11.6791411 65.2558267,11.2977054 64.9654802,11.4713441 C64.7949728,11.6108243 64.6412599,11.7702302 64.458797,11.8983243 C63.9691931,12.2968391 63.5194406,12.7779035 63.2860248,13.3728292 C62.8106535,14.1300074 62.8137847,15.2259233 63.4625099,15.8834728 C64.0377946,16.4214678 64.8373861,16.6378045 65.6059505,16.7146609 C66.061396,16.7858243 66.5310743,16.640651 66.9039703,16.3816163 C67.0548366,16.3275322 67.1288465,15.9603292 66.9352822,16.193745 C66.7420025,16.3019134 66.3264084,16.395849 66.2464208,16.1225817 C66.3377946,15.8977054 66.5823119,15.7923837 66.7647748,15.65575 C67.1348243,15.3995619 67.5817302,15.1718391 67.7664703,14.7363193 C67.8322252,14.5996856 67.8322252,14.4374332 67.6383762,14.5228292 C67.0690693,14.6253045 66.6250099,15.1092153 66.0272376,15.123448 C65.6685743,15.2913936 65.5262475,14.8530272 65.4892426,14.5797599 C65.3045025,14.6566163 64.8373861,14.591146 64.9882525,14.3121856 C65.1732772,14.1499332 65.3981535,14.0360718 65.5974109,13.893745 C65.9076832,13.6717153 66.2635,13.4667649 66.4399851,13.1166411 C66.5225347,12.8689926 66.1211733,13.1451064 66.013005,13.1963441 C65.7482772,13.3529035 65.4240569,13.5948589 65.1078069,13.4240668 C64.8661361,13.2305025 65.315604,12.9543886 65.4382896,12.7864431 C65.6571881,12.6555025 65.7710495,12.2228292 65.4385743,12.1829777 C65.1308639,12.3566163 64.9745891,12.7323589 64.6355668,12.8547599 C64.3366807,12.8746856 64.3309876,12.530255 64.530245,12.3822351 C64.675703,12.168745 64.8262847,11.9581015 64.977151,11.7474579 L64.9797129,11.7559975 Z M31.2710495,24.7020371 C31.7635,24.8842153 32.5633762,24.7902797 32.375505,24.0644134 C32.3612723,23.3015421 32.2189455,22.3564926 31.4361485,22.0063688 C30.6419653,21.8099579 31.4876708,22.8176312 31.2824356,23.2332252 C31.2684876,23.7541411 31.1287228,24.2579777 31.0490198,24.770354 L31.2710495,24.7020371 Z M23.3152698,18.2489431 C22.5122624,18.5250569 23.7590446,19.1029035 23.9557401,19.4501807 C24.6272376,20.0735718 25.1310743,18.5022847 24.2315693,18.4026559 C23.944354,18.285948 23.628104,18.2176312 23.3152698,18.2489431 L23.3152698,18.2489431 Z M20.1897748,20.5261708 C21.083302,20.2472104 22.2646139,20.622953 22.5777327,21.5680025 C22.6577203,22.4191163 21.6298366,21.772953 21.2996386,21.4996856 C20.9014084,21.160948 20.249552,21.0157748 19.9304554,20.6884233 C19.9930792,20.6030272 20.0927079,20.5631757 20.1897748,20.5261708 L20.1897748,20.5261708 Z M20.716099,24.8244381 C20.041755,24.3405272 19.1334257,23.7996856 18.2993911,24.2295124 C17.761396,24.3576064 18.0377946,24.7077302 18.4673366,24.5995619 C19.315604,24.605255 19.7710495,25.595849 20.5794653,25.6243144 C20.8584257,25.4990668 20.795802,25.0550074 20.7132525,24.8215916 L20.716099,24.8244381 Z M19.2418787,28.1007995 C18.6381287,27.6311213 17.6762847,27.6795124 17.2177079,28.3313688 C17.1408515,28.9547599 18.2026089,28.3626807 18.5783515,28.6757995 C19.0283886,28.7441163 19.7425842,29.498448 20.0727822,29.0743144 C19.933302,28.6672599 19.5575594,28.3712203 19.2387475,28.1007995 L19.2418787,28.1007995 Z M27.4566931,48.7097104 C27.9351955,48.1261708 27.2517426,47.3974579 26.7649851,47.0644134 C26.301,46.7569876 25.717745,46.5520371 25.1598243,46.6402797 C25.0969158,47.0416411 26.0590446,47.1355767 26.1729059,47.6337203 C26.503104,48.0407748 26.8703069,48.7495619 27.4595396,48.7097104 L27.4566931,48.7097104 Z M22.478104,49.0313688 C21.8208391,48.6015421 21.0209629,48.1460965 20.2151089,48.4421361 C19.7995149,48.4706015 19.2273614,48.920354 19.9418416,49.0569876 C20.5823119,49.1936213 21.2170891,49.4754282 21.6042178,50.0276559 C22.0112723,50.7079777 22.7627574,50.3094629 22.9961733,49.7230767 L23.0274851,49.6746856 L22.478104,49.0313688 Z M19.8880421,54.1408985 C20.7533886,54.388547 20.3517426,53.3125569 20.0158515,52.9709728 C19.5803317,52.3845866 18.9455545,51.8209728 18.1599109,51.9120619 C17.7955545,51.9547599 16.7739332,52.0486955 16.8991807,52.418745 C17.5251337,52.5667649 18.165604,52.7660223 18.6438218,53.2271609 C19.0480297,53.5488193 19.3867673,53.9558738 19.8849109,54.138052 L19.8880421,54.1408985 Z M19.2159752,57.5311213 C20.1524851,57.7389183 19.6916312,56.5291411 19.0651089,56.4665173 C18.2367673,56.2131757 17.2148614,56.2387946 16.5345396,56.8337203 C16.4292178,57.2521609 17.2177079,56.6088441 17.4855668,56.7540173 C18.1513713,56.7796361 18.5698119,57.4058738 19.2131287,57.5311213 L19.2159752,57.5311213 Z M20.1553317,60.8217153 C20.5652327,60.4402797 19.5063218,60.1157748 19.1647376,60.0873094 C18.3961733,59.973448 17.539651,60.5142896 17.4112723,61.2970866 C17.883797,61.3369381 18.3050842,60.2495619 18.9967921,60.6651559 C19.3753812,60.7704777 19.7539703,60.9014183 20.1553317,60.8217153 L20.1553317,60.8217153 Z M29.8904802,108.44424 C30.7162599,108.911072 31.1885,107.906245 30.8585866,107.234463 C30.5682401,106.386196 30.1153564,105.361158 29.1276089,105.190651 C28.6778564,104.943002 27.3342921,105.207446 28.2451832,105.754265 C28.9141188,106.249562 29.1589208,107.060824 29.4296262,107.800923 C29.548896,108.034339 29.671297,108.290243 29.8933267,108.447087 L29.8904802,108.44424 Z M23.1356535,110.832483 C23.505703,110.155007 23.4203069,109.249809 22.5865569,108.985082 C21.866099,108.432569 20.7217921,108.48096 20.1809505,109.258349 C20.0841683,110.009834 21.4248861,109.468993 21.8806163,109.8732 C22.3158515,110.035168 22.6460495,110.365651 23.0018663,110.650304 L23.1356535,110.832483 Z M20.041755,114.666765 L20.0101584,115.585911 L20.041755,114.666765 Z M22.6773614,114.615527 C23.793203,114.535824 23.0445644,113.112557 22.1792178,113.448448 C21.2313218,113.442755 20.2635,114.031703 20.0386238,114.99127 C19.7627946,115.583349 20.0958391,115.611814 20.4200594,115.153522 C20.9865198,114.595601 21.8037599,114.532978 22.5521139,114.609834 L22.6773614,114.610119 L22.6773614,114.615527 Z M24.7328441,117.795106 C25.0314455,118.629141 24.1860248,118.953361 23.5455545,119.115899 C23.0388713,119.115899 22.5549604,120.536319 22.4670025,119.503027 C22.3958391,118.691765 22.9022376,117.723943 23.793203,117.672421 C24.1037599,117.624314 24.4194406,117.632854 24.7328441,117.610082 L24.7328441,117.795106 Z M26.2184505,121.580998 C26.3809876,122.201542 25.8740198,122.773411 25.5665941,123.192136 C25.0086733,122.622829 25.3303317,121.578151 25.9053317,121.125552 C26.1245149,121.119859 26.1814455,121.421307 26.2184505,121.580998 L26.2184505,121.580998 Z M26.7222871,121.199562 L26.5998861,122.087681 L26.7222871,121.199562 Z M75.8819406,113.585082 C76.9041312,113.667631 77.9456782,113.943745 78.9618911,113.721715 C79.6681163,113.19226 78.3925842,112.785205 77.965604,112.665651 C76.938005,112.417718 75.6118045,112.472087 74.9425842,113.417136 C74.6209257,113.903894 75.0507525,113.983312 75.3755421,113.675886 C75.5346634,113.616109 75.7085866,113.570849 75.8819406,113.585082 L75.8819406,113.585082 Z M73.5164703,116.832978 C74.3476584,116.832693 74.3678688,117.9232 73.5395272,117.943126 C72.8734381,118.056988 72.1757525,118.045601 71.5583391,118.35872 C70.9602822,118.586158 70.5734381,119.118745 70.2543416,119.631121 C69.8020272,119.275304 70.2258762,118.478275 70.4849109,118.054141 C71.0912228,117.023696 72.3778564,116.593584 73.5164703,116.829847 L73.5164703,116.832978 Z M74.4415941,120.846592 C75.1560743,120.88075 75.0393663,121.95674 74.3704307,121.976666 C73.4057401,122.210082 72.409453,122.756616 72.0650223,123.750057 C71.9824728,124.151418 71.8059876,124.512928 71.6266559,123.932235 C71.2648614,122.805007 72.127646,121.666394 73.112547,121.196715 C73.5107772,120.95476 73.9665074,120.838052 74.4330545,120.849438 L74.4415941,120.846592 Z M75.5662599,123.74721 C76.3832153,123.405626 76.3348243,124.646431 75.7965446,124.934215 C75.1848243,125.600304 74.6069777,126.405874 74.6269035,127.350639 C74.111396,126.983436 73.9918416,126.212025 74.1088342,125.597458 C74.2739332,124.774809 74.8628812,124.174191 75.5662599,123.74721 L75.5662599,123.74721 Z M79.3547129,126.718993 C79.8870149,126.098448 80.6498861,126.863881 80.0011609,127.365156 C79.6023614,127.857606 79.2209257,128.475304 79.4144901,129.132854 C78.6800842,129.093002 78.5605297,128.125181 78.7654802,127.552743 C78.8511609,127.21429 79.1042178,126.943869 79.3547129,126.716146 L79.3547129,126.718993 Z M71.9739332,22.9912698 C71.7886238,24.0274084 70.9318168,24.7589678 70.2660124,25.510453 C69.1698119,26.5892896 67.8148614,27.3350817 66.5367673,28.1776559 C64.4787228,29.4244381 62.1787228,30.1673837 59.8761609,30.8107005 C57.5701832,31.5194876 55.1534752,31.8696114 52.7310743,31.9265421 C51.91725,32.128646 52.0877574,31.095354 52.793698,31.2006757 C54.5300842,31.0355767 56.2892426,31.0611955 57.9459257,30.4861955 C60.3626337,29.700552 62.8735619,29.0857005 65.0910124,27.8303787 C66.8214208,26.7800074 68.5948119,25.7495619 70.0949356,24.3860718 C70.7183267,23.8395371 71.0741436,23.0567401 71.7032277,22.518745 C71.9226955,22.4732005 71.9369282,22.8517896 71.9483144,22.9941163 L71.9739332,22.9912698 Z M72.9816064,29.3988193 C73.5252946,28.9063688 73.5904802,29.5183738 73.2261238,29.8599579 C72.2469158,31.095354 71.0345767,32.1371856 69.7536361,33.0594629 C67.9116436,34.263547 65.9617673,35.3366906 63.8243045,35.9344629 C61.0287228,36.7884233 58.1024851,37.2040173 55.1990198,37.3975817 C54.438995,37.3918886 53.5850347,37.5199827 52.8933267,37.1357005 C52.6456782,36.3386708 54.0464579,36.7428787 54.518698,36.6233243 C56.5485619,36.600552 58.5952203,36.4923837 60.5647376,35.9629282 C62.7340817,35.4619381 64.8971634,34.8840916 66.9495149,34.0158985 C68.6491807,33.2017896 70.072448,31.9265421 71.4783515,30.6968391 C71.9597005,30.2499332 72.4433267,29.8058738 72.9702203,29.4102054 L72.9816064,29.3988193 Z M58.7201832,32.04325 C58.293203,31.9692401 57.9573119,32.3279035 58.0398614,32.7520371 C58.0626337,33.1704777 57.9487723,33.6600817 58.2365569,34.013052 C58.538005,34.1240668 59.0222005,34.385948 58.6347871,34.7332252 C58.335901,34.8840916 58.2818168,35.3850817 58.708797,35.3594629 C59.1699356,35.291146 59.1616807,34.7303787 59.1471634,34.3717153 C59.1468787,33.9532748 59.1161361,33.5348342 59.0873861,33.1163936 C58.9738094,32.9085965 58.4614332,32.9769134 58.6490198,32.5954777 C58.6945644,32.4132995 59.3523985,32.1599579 58.7201832,32.0460965 L58.7201832,32.04325 Z M60.8354431,31.431245 C60.4084629,31.3572351 60.0722871,31.7158985 60.1548366,32.1400322 C60.1776089,32.5584728 60.0640322,33.0480767 60.3512475,33.401047 C60.6529802,33.5120619 61.1368911,33.7739431 60.750047,34.1212203 C60.4508762,34.2720866 60.3970767,34.7730767 60.8240569,34.7474579 C61.2877574,34.6791411 61.2763713,34.1183738 61.2624233,33.7568639 C61.2621386,33.3384233 61.2308267,32.9199827 61.202646,32.5015421 C61.0885,32.293745 60.5761238,32.3620619 60.7642797,31.9806262 C60.8098243,31.798448 61.4670891,31.5451064 60.8354431,31.431245 L60.8354431,31.431245 Z M63.1920891,30.6882995 C62.6341683,30.5915173 62.4124233,31.1579777 62.5092054,31.6248094 C62.5146139,32.0290173 62.4465817,32.6467153 62.9447252,32.7805025 C63.5422129,32.9342153 63.0440693,33.4551312 62.8476584,33.7170124 C63.0187351,34.3745619 63.7955545,33.7454777 63.6162228,33.2701064 C63.6162228,32.7463441 63.6159381,32.2140421 63.5365198,31.6988193 C63.2148614,31.6589678 62.8789703,31.3202302 63.2717921,31.0611955 C63.5254183,30.9587203 63.4938218,30.6626807 63.1920891,30.6882995 L63.1920891,30.6882995 Z M65.5208391,29.785948 C64.9629183,29.6920124 64.740604,30.2556262 64.8373861,30.7224579 C64.8433639,31.1266658 64.7747624,31.7443639 65.2729059,31.878151 C65.8706782,32.0318639 65.3725347,32.5527797 65.1764084,32.8146609 C65.3440693,33.4722104 66.1243045,32.8431262 65.9449728,32.367755 C65.9449728,31.8439926 65.9444035,31.3116906 65.8652698,30.7964678 C65.5436114,30.7566163 65.2074356,30.4178787 65.6002574,30.1588441 C65.8538837,30.0563688 65.8222871,29.7603292 65.5208391,29.785948 L65.5208391,29.785948 Z M67.6301213,28.7241906 C67.0722005,28.6274084 66.8501708,29.1938688 66.9466683,29.6607005 C66.9523614,30.0649084 66.8843292,30.6826064 67.3824728,30.8163936 C67.9799604,30.9701064 67.4818168,31.4910223 67.2856906,31.7529035 C67.456198,32.410453 68.233302,31.7813688 68.0539703,31.3059975 C68.0539703,30.7822351 68.0536856,30.2499332 67.974552,29.7347104 C67.6528936,29.6948589 67.3167178,29.3561213 67.7095396,29.0970866 C67.9631658,28.9946114 67.9315693,28.6985718 67.6301213,28.7241906 L67.6301213,28.7241906 Z M69.5515322,27.5172599 C68.9936114,27.4233243 68.7715817,27.9869381 68.8680792,28.4537698 C68.8737723,28.8579777 68.8057401,29.4756757 69.3038837,29.6094629 C69.9013713,29.7631757 69.4032277,30.2840916 69.2071015,30.5459728 C69.375047,31.2035223 70.1547129,30.5744381 69.9753812,30.0990668 C69.9753812,29.5753045 69.9750965,29.0430025 69.8959629,28.5277797 C69.5743045,28.4879282 69.2381287,28.1491906 69.6309505,27.8901559 C69.8845767,27.7876807 69.8529802,27.4916411 69.5515322,27.5172599 L69.5515322,27.5172599 Z M71.0715817,26.3387946 C70.5136609,26.2448589 70.2913465,26.8084728 70.3881287,27.2753045 C70.3941064,27.6795124 70.325505,28.2972104 70.8236485,28.4309975 C71.4214208,28.5847104 70.9232772,29.1056262 70.727151,29.3675074 C70.8976584,30.0250569 71.675047,29.3959728 71.4957153,28.9206015 C71.4957153,28.3968391 71.495146,27.8645371 71.4160124,27.3493144 C71.094354,27.3094629 70.7581782,26.9707252 71.151,26.7116906 C71.4046262,26.6092153 71.3730297,26.3131757 71.0715817,26.3387946 L71.0715817,26.3387946 Z M72.409453,25.0094629 C71.8515322,24.9126807 71.6295025,25.4791411 71.726,25.9459728 C71.7316931,26.3501807 71.6636609,26.9678787 72.1618045,27.1016658 C72.7592921,27.2553787 72.2611485,27.7762946 72.0650223,28.0381757 C72.2329678,28.6957252 73.0126337,28.0666411 72.833302,27.5912698 C72.833302,27.0675074 72.8330173,26.5352054 72.7538837,26.0199827 C72.4319406,25.9801312 72.0960495,25.6413936 72.4888713,25.3823589 C72.7424975,25.2798837 72.710901,24.9838441 72.409453,25.0094629 L72.409453,25.0094629 Z M56.6965817,32.3506757 C56.2696015,32.2766658 55.9334257,32.6353292 56.0159752,33.0594629 C56.0390322,33.4779035 55.9248861,33.9675074 56.2123861,34.3204777 C56.5141188,34.4343391 56.9980297,34.6933738 56.610901,35.040651 C56.3120149,35.1915173 56.2582153,35.6925074 56.6851955,35.6668886 C57.148896,35.5985718 57.134948,35.0378045 57.1207153,34.6791411 C57.120146,34.2607005 57.0891188,33.8422599 57.0606535,33.4238193 C56.9467921,33.2160223 56.4344158,33.2843391 56.6222871,32.9029035 C56.6678317,32.7207252 57.3256658,32.4673837 56.6934505,32.3535223 L56.6965817,32.3506757 Z M54.7065693,32.4417649 C54.2795891,32.367755 53.943698,32.7264183 54.0262475,33.150552 C54.0490198,33.5689926 53.9351584,34.0585965 54.2226584,34.4115668 C54.5243911,34.5254282 55.008302,34.7844629 54.6214579,35.1317401 C54.3222871,35.2826064 54.268203,35.7835965 54.6951832,35.7551312 C55.1591683,35.6868144 55.1449356,35.126047 55.1335495,34.7673837 C55.1332649,34.3489431 55.1022376,33.9305025 55.0737723,33.5120619 C54.9599109,33.3042649 54.4475347,33.3725817 54.6354059,32.991146 C54.6812351,32.8089678 55.3387847,32.5556262 54.7065693,32.4417649 L54.7065693,32.4417649 Z M52.7712104,32.660948 C52.3442302,32.5869381 52.0080545,32.9456015 52.090604,33.3697351 C52.1133762,33.7881757 51.9997995,34.2749332 52.2870149,34.63075 C52.5887475,34.7446114 53.0726584,35.003646 52.6855297,35.3509233 C52.3866436,35.5017896 52.3328441,36.0027797 52.7598243,35.9771609 C53.2235248,35.9088441 53.2121386,35.3480767 53.1981906,34.9865668 C53.1979059,34.5681262 53.1665941,34.1496856 53.1381287,33.731245 C53.0242673,33.523448 52.5118911,33.5917649 52.700047,33.2103292 C52.7453069,33.028151 53.4059876,32.7748094 52.7712104,32.660948 L52.7712104,32.660948 Z" id="Fill-15" fill="#C0B9B4"></path>
            </g>
        </g>
    </g>
</svg>