<?xml version="1.0" encoding="UTF-8"?>
<svg width="115px" height="140px" viewBox="0 0 115 140" version="1.1" xmlns="http://www.w3.org/2000/svg" xmlns:xlink="http://www.w3.org/1999/xlink">
    <!-- Generator: Sketch 53.2 (72643) - https://sketchapp.com -->
    <title>Group 17</title>
    <desc>Created with Sketch.</desc>
    <g id="Desktop" stroke="none" stroke-width="1" fill="none" fill-rule="evenodd">
        <g id="Stabellenbank" transform="translate(-590.000000, -4476.000000)">
            <g id="Group-17" transform="translate(590.000000, 4476.000000)">
                <path d="M57.3861101,0 L114.829179,0 L114.829179,84.4282178 C114.829179,114.772277 89.1249715,139.366337 57.4145755,139.366337 C25.7041795,139.366337 -2.8465347e-05,114.772277 -2.8465347e-05,84.4282178 L-2.8465347e-05,0 L57.3861101,0 Z" id="Fill-1" fill="#C0B9B4"></path>
                <g id="Group-8" transform="translate(12.000000, 19.000000)">
                    <path d="M29.8511303,27.9951151 C30.1153177,28.5390061 31.0881898,29.2642139 31.0881898,29.2642139 C31.0881898,29.2642139 29.3466966,32.437049 28.4159301,39.3264928 C27.190869,39.2358639 26.4041946,39.145235 26.4041946,39.145235 C26.4041946,39.145235 24.8909492,39.3264928 24.3805163,36.2443454 C23.0894083,28.5390061 22.9633138,25.2756009 21.6422097,22.5560866 C20.9936839,21.1963001 19.2761875,20.4710924 17.6968952,19.7458847 C16.0515004,18.9299893 14.5442542,18.2047816 14.5442542,18.2047816 C14.5442542,18.2047816 12.4784702,16.7543662 10.8451295,18.9299893 C10.6589873,19.2019936 10.2626505,19.1113059 10.2086021,17.6608905 C10.1545536,16.2104751 9.12168943,16.8450539 9.12168943,16.8450539 C9.12168943,16.8450539 7.63844002,18.1141527 6.08914375,18.7487315 C4.1435107,19.5645681 1.02686497,13.7629065 0,13.8535354 C1.51330101,13.7629065 5.93899683,13.6722775 5.93899683,13.6722775 C5.93899683,13.6722775 6.56352581,12.947011 6.11314059,12.312491 C5.66275537,11.6779123 2.28792137,13.2190154 1.92763541,12.40312 C1.56734946,11.5872833 0.918768075,10.0461802 0.918768075,10.0461802 C0.918768075,10.0461802 2.79235504,10.9527045 5.57871087,10.4088135 C7.70448689,9.95555129 8.9715425,10.4994424 9.1877363,10.680759 C13.5353868,14.7600597 21.137776,15.2133219 22.344784,14.9413763 C24.0502264,14.5787431 24.8909492,16.9356828 25.2452359,17.7515195 C25.7136188,18.9299893 25.9478102,19.9272014 25.9478102,19.9272014 C25.9478102,19.9272014 27.9354933,24.097131 29.8511303,27.9951151 L29.8511303,27.9951151 Z M1.06291579,54.9184879 C1.06291579,54.9184879 2.69625657,55.5530667 3.05659807,55.8250123 C3.41088482,56.1876455 6.2572883,52.2896027 6.47342655,52.2896027 C6.69561955,52.3802904 6.89981493,52.561607 6.94786416,52.9241814 C6.98985864,53.2868147 3.01454804,59.0884763 3.01454804,59.0884763 C3.01454804,59.0884763 6.47948131,59.3604219 8.46716438,59.179164 C10.4607911,58.9071597 10.4067982,57.0034821 10.9652248,55.2811212 C11.7218475,54.1026513 12.1422367,53.8307058 12.1422367,53.8307058 C12.1422367,53.8307058 12.6706672,55.0091169 13.8896736,55.2811212 C15.2168324,55.6436956 16.5679325,51.0205039 20.122965,47.3944653 C22.4168301,44.9468967 29.0704551,48.0290441 29.0704551,48.0290441 C29.0704551,48.0290441 39.0208134,52.6522359 39.5973487,54.2839679 C42.5758459,53.1054981 42.8100373,44.4029468 43.9389444,45.0375256 C45.9146291,46.2159954 43.48256,48.7542518 43.5546616,50.3859838 C45.1459524,49.9327217 60.1946402,49.0261974 61.4556966,49.9327217 C61.5757919,49.9327217 58.0328134,47.1225198 58.0328134,47.1225198 C58.0328134,47.1225198 62.8368483,42.499328 67.2205497,58.4538976 C68.6617491,63.8023558 72.8052042,63.6210392 75.3273726,65.3434002 C82.6535203,66.9751322 80.2515028,80.7541374 80.5517411,82.4764396 C80.4916935,82.7483851 80.0713599,83.3829639 79.9512645,83.5642806 C79.4708277,84.380176 78.0296283,84.7427504 78.0296283,84.7427504 L77.5492471,84.7427504 C77.5492471,84.7427504 76.8886673,84.4708049 76.2881907,84.4708049 C74.7268404,84.380176 73.2255934,87.6435813 71.2439095,90.9976742 C72.5049659,91.9041398 73.7059746,90.4537832 73.7059746,90.4537832 C73.7059746,90.4537832 75.9878968,84.8333793 76.588429,86.7370569 C76.6484766,87.0090025 74.0062129,93.2639263 73.7660223,93.6265595 C74.0662606,95.076975 75.7477062,92.8106641 76.2881907,92.6293475 C76.8886673,92.5387186 79.8311692,92.1761441 80.3715981,88.5501056 C80.6117888,86.4651114 83.9145767,87.0090025 83.9145767,87.0090025 C83.9145767,87.0090025 84.5151089,86.6463692 84.7552995,86.1931658 C83.7944814,84.4708049 84.6952518,69.6947052 84.2148706,67.4283944 C84.9354425,64.6181925 84.0947752,63.167777 84.0947752,63.167777 C84.0947752,63.167777 82.5934726,63.258406 81.3924639,61.7173616 C79.2906847,60.1762585 76.9487149,46.7598865 75.3874202,45.5814754 C75.5075155,45.1282133 75.6276109,44.76558 75.8678015,44.5842634 C77.9695807,43.2245357 80.0713599,46.2159954 80.2515028,48.3916186 C80.3115505,49.9327217 83.6143384,50.5672417 83.6143384,50.5672417 C83.6143384,50.5672417 83.7944814,50.2046672 82.8336633,48.4823063 C82.5934726,48.119673 83.0739095,47.7570986 83.0739095,47.7570986 C83.0739095,47.7570986 86.7369278,50.2046672 87.5176029,46.0347376 C83.3141001,48.119673 80.5517411,37.3321863 74.5466974,44.4936345 C72.0846323,41.2301704 66.8002161,36.0630875 51.2170985,32.437049 C55.9310342,24.4597642 54.7240262,19.4739392 52.8204432,18.1141527 C48.5027888,23.0999777 47.0915854,19.3832515 45.5482884,20.1084592 C44.2932867,28.2670606 30.649803,21.7401912 30.0072764,39.5984972 C30.2234146,39.5984972 33.9285385,39.8704427 34.4629683,39.8704427 C34.6551652,40.9582249 34.9374059,40.9582249 32.9857736,41.6834326 C31.9108594,41.2301704 26.2241072,41.0489126 23.6238936,39.8704427 C20.8675338,39.0545473 18.1172288,42.5899569 18.1172288,42.5899569 C18.1172288,42.5899569 13.5353868,48.119673 12.484525,48.8448807 C11.4396624,49.5700884 9.13968706,50.2952962 8.51515807,50.7485583 C7.90262751,51.1111916 6.69561955,50.5672417 6.69561955,50.5672417 L1.06291579,54.9184879 Z M63.2752351,52.1989737 C64.7764822,54.6465424 64.8965775,59.4511096 68.9800405,64.1649303 C66.4579277,67.7003399 65.9774909,65.2527125 65.7973479,65.0714546 C61.6538372,65.4340291 64.6563869,58.8165308 64.3561486,57.1847988 C58.8314861,64.7995091 62.314417,70.6917997 62.314417,70.6917997 C62.314417,70.6917997 63.2151875,72.9581105 61.7739326,73.4113726 C58.6513432,74.4085259 51.048954,78.8504011 48.6529357,84.4708049 C47.3918237,87.3716357 46.232865,83.3829639 45.7645377,83.4736516 C44.8757657,83.7455972 42.8400334,89.0939967 42.8400334,89.0939967 C42.8400334,89.0939967 38.0720492,90.1818376 37.9339007,89.9098921 C37.7898086,89.5472588 39.6273447,85.1960126 40.2818698,83.6549095 C39.0869158,82.7483851 37.3454226,87.4622646 37.3454226,87.4622646 L34.7692613,88.0061557 C34.7692613,88.0061557 38.8406704,81.7512319 39.0448658,80.6634497 C39.2370072,79.938242 48.2866505,81.2073408 53.9373519,69.5133886 C43.6807562,56.0063289 60.6930191,50.9298749 63.2752351,52.1989737 L63.2752351,52.1989737 Z M84.7132495,28.085744 C84.8333448,27.360595 84.8333448,26.5446996 84.5931541,25.8194919 C84.2929158,25.0036553 83.8725822,24.3690765 83.3921454,24.097131 C83.5722884,23.3719233 83.5722884,22.5560866 83.3320977,21.7401912 C83.0318594,20.9243546 82.5514226,20.2897758 81.950946,20.1084592 C82.0710413,19.3832515 82.0710413,18.6580438 81.8908984,17.9328361 C81.5305569,16.8450539 80.7499373,16.301104 79.9092145,16.301104 C80.0293098,15.5758963 79.9692622,14.7600597 79.7891192,14.1254809 C79.3086824,12.7657532 78.2277689,12.1311744 77.0868079,12.40312 C77.0868079,12.0405455 77.0267602,11.5872833 76.9066649,11.2246501 C76.4262836,9.68360575 75.1652272,9.04902696 73.9041708,9.68360575 C73.9642185,9.04902696 73.9041708,8.50513588 73.7840199,8.05187371 C73.3036387,6.51082937 71.8023916,5.96687951 70.4212399,6.96403276 C70.1210016,7.14534939 69.880811,7.41729493 69.6406203,7.77992817 C69.6406203,7.32666601 69.6406203,6.87340384 69.4604218,6.42014168 C68.9800405,4.87909734 67.4787935,4.33514748 66.1576339,5.3323595 C65.9174433,5.51361735 65.6772526,5.69493397 65.4971096,5.96687951 C65.0166728,4.33514748 63.5154258,3.88194409 62.1342741,4.87909734 C61.7138849,5.15104288 61.3535989,5.60430505 61.0533606,6.05756721 C60.5729238,4.78840964 59.1917721,4.15388963 57.8106204,4.69778072 C56.9698976,5.06035519 56.3093733,5.69493397 55.8289365,6.51082937 C53.3428745,2.5221576 50.1301303,2.97541976 49.2474686,3.15673638 C44.7796672,4.15388963 42.5697911,8.41450695 39.7594385,8.77708142 C38.4803844,8.95839804 37.2012749,8.23319033 36.5467498,7.68924047 C35.9222208,9.41166021 37.0691811,8.86776912 36.9730826,10.0461802 C36.9430866,10.4088135 35.6940286,12.5844366 37.4655179,12.6750655 C38.3122399,12.7657532 39.8194861,12.4937489 40.3419174,13.4909609 C32.0610063,15.5758963 34.3188761,9.59291805 32.913672,9.59291805 C30.8839944,9.59291805 31.2082851,18.3860982 36.9070358,16.7543662 C37.1052319,17.388945 37.5315648,17.8422072 37.8258038,18.2047816 C39.7234432,16.2104751 43.9449992,17.2983161 39.9516354,21.6495623 C43.1282733,22.1934534 43.5846577,18.8393604 43.6147093,18.5674149 C44.7676688,17.7515195 47.3498848,19.3832515 48.7910286,19.1113059 C50.232228,18.9299893 52.2259658,15.8479007 52.784448,15.666584 C54.7780747,19.1113059 56.1892225,18.9299893 60.0324949,17.6608905 C58.7113908,12.5844366 54.9281661,14.3067975 54.6820318,12.947011 C56.1291748,11.4966544 59.0716768,10.7713879 62.3744647,10.9527045 C62.3744647,10.9527045 62.4345124,11.0433922 62.49456,11.0433922 C65.4971096,11.2246501 68.9199929,12.2218033 71.8624393,14.2161686 C78.047626,18.5674149 83.3320977,26.7260163 83.5122407,36.425662 C85.1936863,33.5248312 85.4338769,30.7146293 84.7132495,28.085744 L84.7132495,28.085744 Z M46.1788166,9.23034358 C46.1788166,8.86776912 46.4070643,8.5957648 46.7552963,8.41450695 C46.815344,9.04902696 47.2116808,9.59291805 47.6921176,9.59291805 C48.2145489,9.59291805 48.6409373,8.95839804 48.6409373,8.14250264 L48.6348825,8.14250264 C49.217417,8.23319033 49.6737459,8.5957648 49.6737459,9.23034358 C49.6737459,11.0433922 46.1788166,10.680759 46.1788166,9.23034358 L46.1788166,9.23034358 Z M89.2171017,18.6580438 C89.1569985,18.2047816 88.9768555,17.7515195 88.8567602,17.388945 C88.9168078,16.8450539 88.9168078,16.301104 88.7967125,15.757213 C88.5565219,14.7600597 87.9559897,14.034852 87.2954655,13.7629065 C87.2954655,13.3096443 87.2954655,12.947011 87.1753701,12.4937489 C86.935124,11.3153378 86.1545044,10.4994424 85.1936863,10.4088135 C85.1936863,10.0461802 85.1936863,9.77423467 85.1336386,9.50228913 C84.7132495,7.77992817 83.3921454,6.96403276 82.0109937,7.50798263 C82.0109937,7.32666601 82.0109937,7.14534939 81.950946,6.96403276 C81.5305569,5.24167181 80.0893575,4.33514748 78.7082058,5.06035519 C78.6481581,5.15104288 78.5881104,5.15104288 78.5881104,5.15104288 C78.5881104,4.87909734 78.5280628,4.69778072 78.4680151,4.42583518 C78.1076736,2.79410314 76.6664742,2.06889543 75.2853225,2.79410314 C75.0451319,2.88473206 74.8048857,3.06604868 74.6247427,3.2473653 C74.6247427,3.06604868 74.6247427,2.79410314 74.5646951,2.61278652 C74.2044091,0.981113257 72.7632097,0.255905549 71.3220104,0.981113257 C70.8416291,1.2530588 70.3611923,1.70626219 70.060954,2.25021205 C69.7607157,0.709167713 68.4396116,-0.288044311 67.0584043,0.0745889292 C66.2777848,0.346534473 65.6772526,0.89042556 65.256919,1.61563327 C64.7764822,0.437163396 63.6355211,-0.197356615 62.4345124,0.0745889292 C61.3535989,0.437163396 60.5128762,1.43431665 60.2726855,2.61278652 C59.7923042,1.52500434 58.7113908,0.89042556 57.6304774,1.1623711 C56.3094289,1.61563327 55.3486108,3.2473653 55.5888014,4.96972626 C55.5888014,5.15104288 55.6488491,5.24167181 55.6488491,5.42298843 C56.189278,4.78840964 56.9698976,4.15388963 57.6304774,3.88194409 C59.0116291,3.33799423 60.3327332,3.70062747 61.1134083,4.78840964 C61.3535989,4.5164641 61.5937896,4.24451855 61.8940834,4.06326071 C63.2752351,3.06604868 64.8365298,3.33799423 65.6772526,4.69778072 C65.7373003,4.69778072 65.7973479,4.6071518 65.8573956,4.5164641 C67.5388412,3.33799423 69.4003742,3.97257301 70.060954,6.05756721 L70.060954,6.23888383 C70.1210016,6.14819613 70.1210016,6.14819613 70.1810493,6.14819613 C71.8024472,4.96972626 73.6639246,5.60430505 74.3245044,7.68924047 C74.3845521,7.77992817 74.4445997,7.96124479 74.4445997,8.14250264 C77.68734,6.78271614 85.9142582,13.4002732 88.7366648,22.2841411 C89.2771493,21.2869291 89.4572923,19.9272014 89.2171017,18.6580438 L89.2171017,18.6580438 Z" id="Fill-1" fill="#EDE9E6"></path>
                    <path d="M61.2,55.6199931 C61.2,55.6199931 62.4770194,54.0000086 65.0310583,55.6199931 C65.2743456,56.4300145 65.3351534,56.5199909 65.7,57.6 C64.9702505,56.069992 62.051365,56.2500032 61.2,55.6199931" id="Fill-4" fill="#C0B9B4"></path>
                    <path d="M32.0416648,10.8013858 C32.6018713,10.8858769 32.3696106,13.8438314 35.0956879,14.4353785 C36.5919526,14.7734523 38.4025118,14.7734523 40.5,14.3508874 C40.5,14.6889065 40.4795231,14.8579434 40.4590463,15.1960173 C36.0726998,16.2101293 34.9727003,16.6326942 33.1416642,15.6185822 C30.9757935,14.5199243 31.3447562,10.7168948 32.0416648,10.8013858" id="Fill-6" fill="#C0B9B4"></path>
                </g>
            </g>
        </g>
    </g>
</svg>